<?xml version="1.0" standalone="no"?>
<!DOCTYPE svg PUBLIC "-//W3C//DTD SVG 20010904//EN"
 "http://www.w3.org/TR/2001/REC-SVG-20010904/DTD/svg10.dtd">
<svg version="1.0" xmlns="http://www.w3.org/2000/svg"
 width="3000.000000pt" height="3000.000000pt" viewBox="0 0 3000.000000 3000.000000"
 preserveAspectRatio="xMidYMid meet">

<g transform="translate(0.000000,3000.000000) scale(0.100000,-0.100000)"
fill="#000000" stroke="none">
<path d="M14043 23083 c-18 -2 -33 -8 -33 -12 0 -5 -21 -11 -47 -14 -26 -3
-49 -10 -51 -16 -2 -6 -21 -11 -43 -11 -28 0 -39 -4 -39 -15 0 -10 -10 -15
-30 -15 -20 0 -30 -5 -30 -15 0 -10 -10 -15 -30 -15 -20 0 -30 -5 -30 -15 0
-10 -10 -15 -30 -15 -20 0 -30 -5 -30 -15 0 -8 -7 -15 -15 -15 -8 0 -15 -7
-15 -15 0 -9 -9 -15 -25 -15 -16 0 -25 -6 -25 -15 0 -8 -7 -15 -15 -15 -8 0
-15 -7 -15 -15 0 -8 -7 -15 -15 -15 -8 0 -15 -7 -15 -15 0 -8 -6 -15 -14 -15
-8 0 -16 -7 -20 -15 -3 -8 -17 -15 -31 -15 -14 0 -25 -4 -25 -9 0 -6 -31 -13
-70 -17 -38 -3 -70 -10 -70 -14 0 -4 -22 -10 -50 -14 -27 -4 -50 -10 -50 -15
0 -5 -19 -11 -41 -14 -23 -3 -45 -10 -48 -15 -3 -5 -23 -12 -43 -16 -21 -4
-38 -11 -38 -16 0 -6 -9 -10 -19 -10 -11 0 -26 -7 -35 -15 -8 -8 -26 -15 -40
-15 -16 0 -26 -6 -26 -14 0 -8 -11 -17 -25 -20 -14 -4 -25 -11 -25 -16 0 -6
-9 -10 -20 -10 -11 0 -20 -7 -20 -15 0 -10 -10 -15 -30 -15 -20 0 -30 -5 -30
-15 0 -8 -7 -15 -15 -15 -8 0 -15 -4 -15 -10 0 -5 -11 -12 -25 -16 -14 -3 -25
-12 -25 -20 0 -8 -5 -14 -10 -14 -6 0 -27 -18 -49 -40 -21 -22 -44 -40 -50
-40 -6 0 -11 -7 -11 -15 0 -8 -7 -15 -15 -15 -8 0 -15 -7 -15 -15 0 -8 -7 -15
-15 -15 -8 0 -15 -7 -15 -15 0 -8 -7 -15 -15 -15 -8 0 -15 -9 -15 -20 0 -11
-7 -20 -15 -20 -9 0 -15 -9 -15 -25 0 -16 -6 -25 -15 -25 -8 0 -15 -7 -15 -15
0 -8 -7 -15 -15 -15 -8 0 -15 -7 -15 -15 0 -8 -4 -15 -9 -15 -5 0 -12 -13 -16
-30 -4 -16 -10 -30 -15 -30 -5 0 -11 -13 -15 -30 -4 -16 -11 -30 -16 -30 -5 0
-11 -11 -15 -25 -3 -14 -10 -25 -14 -25 -5 0 -11 -13 -15 -30 -4 -16 -11 -30
-16 -30 -5 0 -9 -13 -9 -30 0 -20 -5 -30 -15 -30 -10 0 -15 -10 -15 -34 0 -19
-7 -41 -15 -50 -8 -8 -15 -26 -15 -40 0 -16 -6 -26 -15 -26 -8 0 -15 -7 -15
-15 0 -8 -7 -15 -15 -15 -8 0 -15 -4 -15 -9 0 -5 -13 -12 -30 -16 -16 -4 -30
-13 -30 -21 0 -8 -7 -14 -15 -14 -8 0 -15 -7 -15 -15 0 -8 -7 -15 -15 -15 -8
0 -15 -7 -15 -15 0 -8 -5 -15 -11 -15 -13 0 -99 -85 -99 -97 0 -5 -13 -20 -29
-34 -15 -14 -31 -35 -35 -47 -4 -12 -11 -22 -16 -22 -4 0 -11 -11 -14 -25 -4
-14 -11 -25 -16 -25 -6 0 -10 -9 -10 -20 0 -11 -7 -20 -15 -20 -10 0 -15 -10
-15 -30 0 -20 -5 -30 -15 -30 -10 0 -15 -10 -15 -30 0 -20 -5 -30 -15 -30 -11
0 -15 -11 -15 -39 0 -25 -5 -41 -15 -45 -10 -3 -15 -19 -15 -45 0 -25 -5 -41
-15 -45 -11 -4 -15 -21 -15 -60 0 -32 -5 -56 -12 -58 -6 -2 -13 -30 -16 -61
-2 -31 -7 -57 -10 -57 -7 0 -72 68 -72 76 0 4 -16 22 -35 41 -19 19 -35 38
-35 43 0 5 -11 12 -25 16 -14 3 -25 12 -25 20 0 8 -7 14 -15 14 -8 0 -15 7
-15 15 0 8 -5 15 -10 15 -6 0 -21 11 -33 24 -13 14 -35 28 -50 31 -15 4 -27
13 -27 21 0 8 -7 14 -15 14 -8 0 -15 4 -15 9 0 5 -13 12 -30 16 -16 4 -30 10
-30 15 0 4 -18 10 -40 14 -22 3 -40 10 -40 15 0 5 -16 12 -35 15 -19 4 -35 11
-35 15 0 5 -23 11 -52 13 -29 3 -54 11 -56 17 -5 16 -469 16 -474 -1 -2 -6
-30 -13 -61 -16 -31 -2 -57 -8 -57 -13 0 -5 -18 -12 -40 -15 -22 -4 -40 -10
-40 -15 0 -4 -16 -11 -35 -15 -19 -3 -35 -10 -35 -14 0 -4 -11 -11 -25 -14
-14 -4 -25 -10 -25 -15 0 -5 -13 -12 -30 -16 -16 -4 -30 -11 -30 -16 0 -5 -7
-9 -15 -9 -8 0 -15 -6 -15 -14 0 -8 -13 -17 -30 -21 -16 -4 -30 -11 -30 -16 0
-5 -7 -9 -15 -9 -8 0 -15 -7 -15 -15 0 -8 -7 -15 -15 -15 -8 0 -15 -7 -15 -15
0 -8 -7 -15 -15 -15 -8 0 -15 -7 -15 -15 0 -8 -7 -15 -15 -15 -8 0 -15 -7 -15
-15 0 -8 -7 -15 -15 -15 -8 0 -15 -7 -15 -15 0 -8 -7 -15 -15 -15 -8 0 -15 -5
-15 -11 0 -7 -11 -22 -24 -34 -13 -12 -27 -32 -31 -43 -3 -12 -11 -22 -16 -22
-5 0 -9 -7 -9 -15 0 -9 -7 -18 -15 -21 -8 -4 -15 -17 -15 -30 0 -15 -6 -24
-15 -24 -10 0 -15 -10 -15 -30 0 -20 -5 -30 -15 -30 -10 0 -15 -10 -15 -30 0
-20 -5 -30 -15 -30 -11 0 -15 -12 -15 -45 0 -33 -4 -45 -15 -45 -11 0 -15 -13
-15 -54 0 -39 -4 -55 -16 -60 -13 -5 -15 -35 -12 -238 2 -174 6 -232 16 -236
7 -2 12 -21 12 -47 0 -25 6 -50 15 -59 8 -8 15 -32 15 -55 0 -30 4 -41 15 -41
10 0 15 -10 15 -30 0 -20 5 -30 15 -30 10 0 15 -10 15 -30 0 -20 5 -30 15 -30
9 0 15 -9 15 -24 0 -13 7 -26 15 -30 8 -3 15 -12 15 -21 0 -8 4 -15 10 -15 5
0 12 -11 16 -25 3 -14 12 -25 20 -25 8 0 14 -5 14 -10 0 -6 11 -21 25 -34 14
-13 25 -28 25 -35 0 -6 7 -11 15 -11 8 0 15 -7 15 -15 0 -8 7 -15 15 -15 8 0
15 -7 15 -15 0 -8 7 -15 15 -15 8 0 15 -7 15 -15 0 -8 7 -15 15 -15 8 0 15 -7
15 -15 0 -8 9 -15 20 -15 11 0 20 -4 20 -10 0 -5 11 -12 25 -16 14 -3 25 -12
25 -20 0 -8 7 -14 15 -14 8 0 15 -4 15 -9 0 -5 14 -12 30 -16 17 -4 30 -10 30
-15 0 -5 14 -11 30 -15 17 -4 30 -11 30 -16 0 -5 18 -12 40 -15 22 -4 40 -10
40 -15 0 -4 20 -11 45 -15 25 -3 45 -10 45 -14 0 -4 27 -11 60 -15 33 -4 60
-11 60 -16 0 -5 90 -9 205 -9 123 0 205 4 205 10 0 5 27 12 60 16 33 4 60 10
60 15 0 5 18 12 40 15 22 4 40 10 40 14 0 5 14 11 30 15 17 4 30 11 30 16 0 5
9 9 19 9 11 0 26 7 35 15 16 17 66 21 66 5 0 -5 7 -10 15 -10 8 0 15 -7 15
-15 0 -8 7 -15 15 -15 8 0 15 -7 15 -15 0 -8 7 -15 15 -15 8 0 15 -7 15 -15 0
-8 7 -15 15 -15 8 0 15 -7 15 -15 0 -8 7 -15 15 -15 8 0 15 -7 15 -15 0 -8 7
-15 15 -15 8 0 15 -7 15 -15 0 -8 7 -15 15 -15 8 0 15 -7 15 -15 0 -8 7 -15
15 -15 8 0 15 -7 15 -15 0 -8 7 -15 15 -15 8 0 15 -7 15 -15 0 -8 7 -15 15
-15 8 0 15 -7 15 -15 0 -8 7 -15 15 -15 8 0 15 -5 15 -11 0 -7 11 -22 25 -35
14 -13 25 -28 25 -34 0 -5 7 -10 15 -10 8 0 15 -7 15 -15 0 -8 7 -15 15 -15 9
0 15 -9 15 -25 0 -16 6 -25 15 -25 8 0 15 -6 15 -14 0 -8 7 -16 15 -20 8 -3
15 -17 15 -31 0 -16 6 -25 15 -25 8 0 15 -7 15 -15 0 -8 4 -15 9 -15 5 0 12
-13 16 -30 4 -16 10 -30 15 -30 5 0 11 -13 15 -30 4 -17 11 -30 16 -30 5 0 11
-11 15 -25 3 -14 10 -25 14 -25 5 0 11 -13 15 -30 4 -16 10 -30 15 -30 5 0 11
-13 15 -30 4 -16 11 -30 16 -30 5 0 9 -7 9 -15 0 -9 7 -18 15 -21 8 -4 15 -17
15 -30 0 -14 7 -27 15 -30 8 -4 15 -17 15 -30 0 -15 6 -24 15 -24 10 0 15 -10
15 -30 0 -20 5 -30 15 -30 10 0 15 -10 15 -30 0 -20 5 -30 15 -30 10 0 15 -10
15 -30 0 -20 5 -30 15 -30 9 0 15 -9 15 -24 0 -13 7 -26 15 -30 8 -3 15 -16
15 -30 0 -13 7 -26 15 -30 8 -3 15 -17 15 -31 0 -16 6 -25 15 -25 10 0 15 -10
15 -30 0 -20 5 -30 15 -30 10 0 15 -10 15 -30 0 -20 5 -30 15 -30 10 0 15 -10
15 -30 0 -16 4 -30 10 -30 5 0 12 -11 16 -25 3 -14 10 -25 14 -25 5 0 11 -13
15 -30 4 -16 10 -30 15 -30 5 0 11 -13 15 -30 4 -16 10 -30 15 -30 5 0 11 -13
15 -30 4 -16 11 -30 16 -30 5 0 9 -9 9 -19 0 -11 7 -26 15 -34 7 -8 17 -26 21
-41 3 -14 10 -26 15 -26 5 0 9 -11 9 -25 0 -14 7 -28 15 -31 8 -4 15 -16 15
-29 0 -13 7 -25 15 -29 8 -3 15 -17 15 -31 0 -16 6 -25 15 -25 10 0 15 -10 15
-30 0 -20 5 -30 15 -30 10 0 15 -10 15 -30 0 -20 5 -30 15 -30 10 0 15 -10 15
-29 0 -16 6 -31 12 -33 8 -3 14 -33 16 -86 3 -68 1 -83 -12 -88 -9 -3 -16 -12
-16 -20 0 -8 -7 -14 -15 -14 -8 0 -15 -7 -15 -15 0 -8 -7 -15 -15 -15 -8 0
-15 -7 -15 -15 0 -8 -7 -15 -15 -15 -8 0 -15 -7 -15 -15 0 -8 -7 -15 -15 -15
-8 0 -15 -4 -15 -10 0 -14 -117 -13 -122 1 -2 5 -22 13 -46 16 -23 3 -42 10
-42 14 0 5 -6 9 -14 9 -21 0 -66 47 -66 70 0 11 -7 20 -15 20 -10 0 -15 10
-15 30 0 20 -5 30 -15 30 -10 0 -15 10 -15 30 0 20 -5 30 -15 30 -11 0 -15 11
-15 40 0 29 -4 40 -15 40 -10 0 -15 10 -15 30 0 20 -5 30 -15 30 -10 0 -15 10
-15 29 0 16 -6 31 -15 35 -9 3 -15 18 -15 36 0 16 -4 30 -10 30 -5 0 -12 11
-16 25 -3 14 -10 25 -14 25 -5 0 -11 14 -15 30 -4 17 -10 30 -15 30 -5 0 -11
14 -15 30 -4 17 -11 30 -16 30 -5 0 -12 18 -15 40 -4 22 -10 40 -14 40 -5 0
-11 14 -15 30 -4 17 -11 30 -16 30 -5 0 -9 9 -9 19 0 11 -6 26 -13 33 -8 7
-17 26 -21 41 -3 15 -11 27 -16 27 -6 0 -10 14 -10 30 0 20 -5 30 -15 30 -10
0 -15 10 -15 30 0 20 -5 30 -15 30 -10 0 -15 10 -15 30 0 20 -5 30 -15 30 -11
0 -15 11 -15 40 0 29 -4 40 -15 40 -10 0 -15 10 -15 30 0 20 -5 30 -15 30 -10
0 -15 10 -15 29 0 16 -6 31 -15 35 -8 3 -15 16 -15 30 0 13 -7 26 -15 30 -8 3
-15 17 -15 31 0 14 -4 25 -9 25 -5 0 -12 14 -16 30 -4 17 -11 30 -16 30 -5 0
-12 18 -15 40 -4 22 -10 40 -15 40 -4 0 -11 16 -15 35 -3 19 -10 35 -14 35 -5
0 -12 9 -15 20 -11 34 -70 87 -106 94 -47 9 -129 -3 -129 -20 0 -8 -7 -14 -15
-14 -8 0 -15 -7 -15 -15 0 -8 -7 -15 -15 -15 -9 0 -15 -9 -15 -25 0 -14 -4
-25 -10 -25 -5 0 -10 -13 -10 -30 0 -16 4 -30 9 -30 4 0 11 -19 14 -42 3 -24
11 -44 16 -46 6 -2 11 -17 11 -33 0 -19 5 -29 15 -29 10 0 15 -10 15 -30 0
-20 5 -30 15 -30 11 0 15 -11 15 -40 0 -29 4 -40 15 -40 10 0 15 -10 15 -30 0
-20 5 -30 15 -30 10 0 15 -11 15 -35 0 -19 5 -35 10 -35 6 0 10 -4 10 -9 0 -5
-70 -10 -156 -13 -102 -3 -158 -8 -162 -15 -5 -8 -80 -13 -246 -15 -180 -2
-240 -6 -244 -15 -2 -9 -30 -13 -93 -13 l-89 0 0 380 c0 331 -2 380 -15 380
-8 0 -15 7 -15 15 0 8 -7 15 -15 15 -8 0 -15 7 -15 15 0 9 -9 15 -25 15 -16 0
-25 6 -25 15 0 12 -13 15 -60 15 -47 0 -60 -3 -60 -15 0 -10 -10 -15 -30 -15
-19 0 -30 -5 -30 -14 0 -8 -7 -21 -15 -29 -12 -12 -15 -75 -17 -378 -2 -279
-6 -363 -15 -367 -16 -5 -17 -29 -3 -34 7 -2 6 -13 -2 -30 -10 -21 -20 -28
-40 -28 -18 0 -28 -5 -28 -15 0 -8 -5 -15 -10 -15 -12 0 -80 -63 -80 -74 0 -4
-7 -14 -15 -22 -8 -9 -15 -24 -15 -35 0 -10 -4 -19 -10 -19 -6 0 -10 -40 -10
-100 0 -55 4 -100 9 -100 5 0 12 -38 16 -85 4 -47 10 -85 14 -85 5 0 11 -33
14 -72 4 -40 11 -74 17 -76 5 -2 10 -30 10 -63 0 -46 3 -59 15 -59 12 0 15
-13 15 -59 0 -40 5 -65 15 -75 8 -8 15 -32 15 -56 0 -27 5 -43 15 -46 11 -5
15 -21 15 -60 0 -41 4 -54 15 -54 11 0 15 -12 15 -45 0 -33 4 -45 15 -45 11 0
15 -12 15 -45 0 -33 4 -45 15 -45 11 0 15 -11 15 -39 0 -25 5 -41 15 -45 10
-3 15 -19 15 -46 0 -29 4 -40 15 -40 10 0 15 -10 15 -29 0 -16 5 -31 11 -33 5
-2 13 -22 16 -46 3 -23 9 -42 14 -42 4 0 10 -13 14 -30 4 -16 10 -30 15 -30 5
0 11 -13 15 -30 4 -16 10 -30 15 -30 4 0 10 -18 14 -40 3 -22 10 -40 15 -40 5
0 12 -13 16 -30 4 -16 11 -30 16 -30 5 0 9 -9 9 -19 0 -11 7 -26 15 -35 8 -8
15 -26 15 -40 0 -16 6 -26 15 -26 10 0 15 -10 15 -30 0 -20 5 -30 15 -30 9 0
15 -9 15 -25 0 -14 7 -28 15 -31 8 -4 15 -17 15 -30 0 -15 6 -24 15 -24 10 0
15 -10 15 -30 0 -20 5 -30 15 -30 8 0 15 -9 15 -20 0 -11 4 -20 10 -20 5 0 12
-11 16 -25 3 -14 10 -25 14 -25 5 0 11 -13 15 -30 4 -16 13 -30 21 -30 8 0 14
-7 14 -15 0 -8 4 -15 9 -15 5 0 12 -13 16 -30 4 -16 10 -30 15 -30 4 0 11 -11
14 -25 4 -14 11 -25 16 -25 6 0 10 -7 10 -15 0 -9 6 -18 14 -21 8 -3 17 -16
20 -30 4 -13 11 -24 16 -24 6 0 10 -7 10 -15 0 -9 6 -18 14 -21 8 -3 17 -16
20 -30 4 -13 11 -24 16 -24 6 0 10 -7 10 -15 0 -8 7 -15 15 -15 8 0 15 -7 15
-15 0 -8 7 -15 15 -15 10 0 15 -10 15 -30 0 -20 5 -30 15 -30 8 0 15 -7 15
-15 0 -8 7 -15 15 -15 8 0 15 -7 15 -15 0 -8 7 -15 15 -15 9 0 15 -9 15 -24 0
-13 7 -26 15 -30 8 -3 15 -12 15 -21 0 -8 7 -15 15 -15 8 0 15 -7 15 -15 0 -8
7 -15 15 -15 8 0 15 -7 15 -15 0 -8 4 -15 10 -15 5 0 12 -11 16 -25 3 -14 12
-25 20 -25 8 0 14 -5 14 -10 0 -6 18 -27 40 -49 22 -21 40 -44 40 -50 0 -6 7
-11 15 -11 8 0 15 -7 15 -15 0 -8 7 -15 15 -15 8 0 15 -7 15 -15 0 -8 7 -15
15 -15 8 0 15 -7 15 -15 0 -8 7 -15 15 -15 8 0 15 -7 15 -15 0 -8 7 -15 15
-15 8 0 15 -7 15 -15 0 -8 7 -15 15 -15 8 0 15 -7 15 -15 0 -8 7 -15 15 -15 8
0 15 -7 15 -15 0 -8 7 -15 15 -15 8 0 15 -7 15 -15 0 -8 5 -15 11 -15 6 0 42
-31 80 -70 38 -38 74 -70 79 -70 6 0 10 -7 10 -15 0 -9 9 -15 25 -15 16 0 25
-6 25 -15 0 -8 7 -15 15 -15 8 0 15 -7 15 -15 0 -8 7 -15 15 -15 8 0 15 -7 15
-15 0 -8 7 -15 15 -15 8 0 15 -7 15 -15 0 -8 7 -15 15 -15 8 0 15 -4 15 -10 0
-5 11 -12 24 -16 14 -3 27 -12 30 -20 3 -8 12 -14 21 -14 8 0 15 -7 15 -15 0
-8 7 -15 15 -15 8 0 15 -4 15 -9 0 -5 10 -13 22 -16 11 -4 31 -18 43 -31 12
-13 26 -24 31 -24 5 0 17 -9 27 -20 9 -11 24 -20 32 -20 8 0 15 -4 15 -10 0
-5 7 -10 15 -10 8 0 15 -6 15 -14 0 -8 11 -17 25 -20 14 -4 25 -11 25 -16 0
-6 9 -10 20 -10 11 0 20 -7 20 -15 0 -9 9 -15 25 -15 16 0 25 -6 25 -15 0 -8
9 -15 20 -15 11 0 20 -7 20 -15 0 -9 9 -15 25 -15 16 0 25 -6 25 -15 0 -8 9
-15 20 -15 11 0 20 -4 20 -10 0 -5 11 -12 24 -16 14 -3 27 -12 30 -20 3 -8 17
-14 31 -14 16 0 25 -6 25 -15 0 -8 7 -15 15 -15 8 0 15 -4 15 -9 0 -5 14 -12
30 -16 17 -4 30 -13 30 -21 0 -11 -17 -14 -75 -14 -41 0 -75 -4 -75 -8 0 -5
-77 -12 -172 -15 -94 -4 -174 -11 -177 -15 -3 -5 -69 -12 -145 -15 -76 -3
-142 -10 -145 -15 -3 -5 -55 -11 -114 -14 -60 -3 -112 -10 -115 -15 -4 -6 -45
-12 -91 -15 -55 -2 -86 -8 -89 -16 -2 -8 -28 -12 -77 -12 -52 0 -78 -4 -89
-15 -9 -10 -34 -15 -70 -15 -43 0 -56 -3 -56 -15 0 -12 -13 -15 -60 -15 -47 0
-60 -3 -60 -15 0 -11 -12 -15 -45 -15 -33 0 -45 -4 -45 -15 0 -11 -11 -15 -39
-15 -25 0 -41 -5 -45 -15 -3 -8 -16 -15 -30 -15 -13 0 -26 -7 -30 -15 -3 -8
-17 -15 -31 -15 -16 0 -25 -6 -25 -15 0 -8 -7 -15 -15 -15 -8 0 -15 -7 -15
-15 0 -8 -6 -15 -14 -15 -9 0 -16 -16 -20 -44 -8 -53 1 -96 20 -96 8 0 14 -7
14 -15 0 -8 7 -15 15 -15 8 0 15 -7 15 -15 0 -9 9 -15 25 -15 16 0 25 -6 25
-15 0 -10 10 -15 30 -15 20 0 30 -5 30 -15 0 -11 12 -15 45 -15 33 0 45 -4 45
-15 0 -11 11 -15 39 -15 25 0 41 -5 45 -15 4 -10 20 -15 50 -15 25 0 46 -5 48
-12 2 -6 32 -13 69 -16 35 -3 67 -9 70 -15 4 -5 31 -12 60 -15 30 -3 57 -9 60
-13 3 -5 41 -12 85 -15 43 -4 81 -11 84 -15 3 -5 45 -12 93 -15 48 -4 87 -10
87 -14 0 -4 46 -10 102 -14 57 -4 105 -11 108 -15 3 -4 61 -11 129 -15 69 -3
127 -10 130 -15 3 -4 75 -11 160 -13 84 -3 156 -10 160 -16 3 -5 86 -11 189
-14 113 -3 186 -9 190 -15 5 -7 95 -12 255 -14 174 -3 250 -7 255 -16 5 -8
124 -12 436 -15 332 -2 430 -6 434 -15 6 -19 1548 -19 1554 0 4 9 100 13 424
15 293 3 421 7 426 15 4 7 86 12 250 15 164 3 245 8 250 16 5 7 70 12 190 14
101 3 186 8 189 14 3 5 71 12 150 15 79 3 146 10 149 14 3 4 63 11 133 15 70
4 127 10 127 14 0 4 52 11 115 15 63 4 115 10 115 15 0 4 44 10 97 14 54 4
100 10 103 15 3 4 38 11 79 13 40 3 76 10 80 15 3 6 37 13 76 16 38 3 71 10
73 16 2 6 26 11 53 11 35 0 51 4 55 15 5 11 21 15 60 15 39 0 56 4 60 15 4 10
20 15 45 15 28 0 39 4 39 15 0 11 12 15 45 15 33 0 45 4 45 15 0 10 10 15 30
15 20 0 30 5 30 15 0 9 9 15 25 15 16 0 25 6 25 15 0 8 7 15 15 15 8 0 17 11
21 24 3 14 12 27 20 30 20 8 19 85 -1 92 -8 4 -15 12 -15 20 0 8 -5 14 -10 14
-6 0 -21 10 -33 23 -12 13 -30 26 -39 30 -10 3 -18 11 -18 17 0 5 -11 10 -25
10 -16 0 -25 6 -25 15 0 11 -12 15 -45 15 -33 0 -45 4 -45 15 0 11 -12 15 -45
15 -33 0 -45 4 -45 15 0 11 -13 15 -54 15 -39 0 -55 4 -60 15 -4 11 -22 15
-70 15 -47 0 -65 4 -70 15 -4 11 -21 15 -65 15 -38 0 -61 4 -63 12 -3 8 -33
14 -84 16 -43 3 -82 9 -85 14 -4 6 -58 13 -120 16 -63 2 -117 9 -120 14 -3 5
-62 12 -130 15 -68 3 -126 10 -129 14 -3 5 -90 11 -193 15 -103 4 -187 11
-187 16 0 4 -18 8 -39 8 -67 0 -96 22 -46 34 14 4 25 10 25 15 0 5 14 12 30
16 17 4 30 11 30 16 0 5 7 9 15 9 8 0 15 7 15 15 0 9 9 15 25 15 14 0 28 6 31
14 3 8 16 17 30 20 13 4 24 11 24 16 0 6 9 10 20 10 11 0 20 7 20 15 0 9 9 15
25 15 16 0 25 6 25 15 0 10 10 15 30 15 20 0 30 5 30 15 0 8 7 15 15 15 8 0
15 7 15 15 0 10 10 15 30 15 20 0 30 5 30 15 0 8 7 15 15 15 8 0 15 7 15 15 0
8 7 15 15 15 8 0 15 4 15 9 0 5 12 12 27 16 15 3 37 17 50 31 12 13 27 24 33
24 5 0 10 6 10 14 0 8 11 17 25 20 14 4 25 11 25 16 0 6 7 10 15 10 9 0 18 7
21 15 4 8 12 15 20 15 8 0 14 7 14 15 0 9 9 15 25 15 16 0 25 6 25 15 0 8 7
15 15 15 8 0 15 7 15 15 0 8 7 15 15 15 8 0 15 7 15 15 0 8 7 15 15 15 8 0 15
7 15 15 0 8 7 15 15 15 8 0 15 5 15 10 0 6 7 10 15 10 8 0 29 16 48 35 19 19
39 35 46 35 6 0 11 7 11 15 0 8 7 15 15 15 8 0 15 7 15 15 0 8 5 15 11 15 14
0 39 25 39 39 0 6 7 11 15 11 8 0 15 7 15 15 0 8 7 15 15 15 8 0 15 7 15 15 0
8 7 15 15 15 8 0 15 7 15 15 0 8 7 15 15 15 8 0 15 7 15 15 0 8 7 15 15 15 8
0 15 7 15 15 0 8 7 15 15 15 8 0 15 7 15 15 0 8 7 15 15 15 8 0 15 7 15 15 0
8 7 15 15 15 8 0 15 7 15 15 0 8 7 15 15 15 8 0 15 5 15 11 0 6 20 31 45 56
25 24 45 49 45 54 0 6 11 20 25 33 14 13 25 28 25 35 0 6 7 11 15 11 8 0 15 7
15 15 0 9 6 18 14 21 8 3 17 16 20 30 4 13 11 24 16 24 6 0 10 7 10 15 0 8 7
15 15 15 8 0 15 7 15 15 0 8 7 15 15 15 9 0 15 9 15 25 0 14 7 28 15 31 8 4
15 12 15 20 0 8 7 14 15 14 9 0 15 9 15 25 0 16 6 25 15 25 8 0 15 6 15 14 0
8 7 16 15 20 8 3 15 12 15 21 0 8 4 15 10 15 5 0 12 11 16 25 3 14 12 25 20
25 8 0 14 7 14 15 0 8 4 15 9 15 5 0 12 12 15 26 4 14 18 36 31 48 13 12 27
34 30 49 4 15 11 27 16 27 5 0 9 7 9 15 0 8 7 15 15 15 9 0 15 9 15 25 0 14 7
28 15 31 8 4 15 17 15 30 0 15 6 24 15 24 8 0 15 9 15 19 0 11 7 26 15 35 8 8
15 22 15 30 0 9 7 16 15 16 9 0 15 9 15 24 0 13 7 26 15 30 8 3 15 17 15 31 0
16 6 25 15 25 10 0 15 10 15 30 0 20 5 30 15 30 10 0 15 10 15 30 0 17 4 30
10 30 5 0 13 12 16 27 4 15 13 34 21 41 7 7 13 22 13 33 0 10 4 19 10 19 5 0
13 18 16 40 4 22 10 40 14 40 5 0 11 14 15 30 4 16 10 30 15 30 5 0 11 13 15
30 4 16 10 30 14 30 5 0 11 19 14 41 3 23 10 45 15 48 5 3 12 23 16 44 4 20
11 37 16 37 6 0 10 14 10 30 0 18 6 33 15 36 10 4 15 20 15 45 0 26 5 42 15
45 10 4 15 20 15 45 0 28 4 39 15 39 11 0 15 13 15 54 0 39 4 55 15 60 10 4
15 20 15 51 0 33 4 45 15 45 11 0 15 13 15 54 0 39 4 55 15 60 11 4 15 21 15
60 0 33 5 56 12 58 6 2 13 32 16 69 3 35 9 67 15 71 6 4 13 37 15 75 3 37 9
71 13 74 5 3 12 43 16 90 3 46 10 87 14 90 5 3 12 61 15 130 4 71 12 127 18
131 15 10 15 926 0 936 -6 4 -14 61 -17 137 -4 73 -11 131 -17 133 -5 2 -10
35 -10 73 0 53 -3 69 -14 69 -8 0 -17 14 -21 30 -4 17 -13 30 -21 30 -8 0 -14
4 -14 10 0 5 -11 12 -25 16 -14 3 -25 12 -25 20 0 9 -11 14 -29 14 -16 0 -31
5 -33 11 -2 6 -28 14 -58 17 -30 2 -58 9 -61 15 -4 5 -30 12 -58 15 -28 2 -51
8 -51 12 0 5 -27 11 -60 15 -33 4 -60 11 -60 15 0 4 -27 11 -60 15 -33 4 -60
10 -60 15 0 4 -32 10 -71 12 -39 3 -74 10 -78 16 -3 5 -41 11 -84 14 -43 2
-81 8 -85 15 -4 6 -46 12 -101 14 -64 3 -96 8 -99 17 -3 9 -36 12 -123 12 -99
0 -119 3 -119 15 0 12 -18 15 -100 15 l-100 0 0 30 c0 17 4 30 9 30 5 0 12 41
16 90 4 50 11 90 16 90 5 0 9 52 9 115 0 63 -4 115 -9 115 -5 0 -12 34 -16 75
-4 41 -10 75 -15 75 -4 0 -11 25 -15 55 -3 30 -10 55 -15 55 -5 0 -11 14 -15
30 -4 17 -11 30 -16 30 -5 0 -9 41 -9 90 0 53 4 90 10 90 6 0 10 40 10 100 0
60 -4 100 -10 100 -5 0 -10 20 -10 45 0 31 -4 45 -14 45 -8 0 -16 16 -19 42
-3 24 -11 44 -16 46 -6 2 -11 10 -11 17 0 8 -6 20 -14 27 -9 10 -15 45 -17
103 -3 59 -8 90 -17 93 -8 2 -12 30 -12 88 0 68 -3 84 -15 84 -12 0 -15 13
-15 55 0 42 -3 55 -15 55 -10 0 -15 10 -15 31 0 17 -7 37 -15 45 -8 9 -15 29
-15 45 0 19 -5 29 -15 29 -10 0 -15 10 -15 30 0 20 -5 30 -15 30 -9 0 -15 9
-15 24 0 13 -7 26 -15 30 -8 3 -15 12 -15 21 0 8 -4 15 -10 15 -5 0 -10 7 -10
15 0 8 -9 23 -20 32 -11 10 -20 21 -20 26 0 5 -18 27 -40 48 -22 22 -40 43
-40 49 0 5 -7 10 -15 10 -8 0 -15 7 -15 15 0 8 -5 15 -10 15 -6 0 -21 11 -34
25 -13 14 -28 25 -35 25 -6 0 -11 7 -11 15 0 8 -7 15 -15 15 -8 0 -15 7 -15
15 0 10 -10 15 -30 15 -20 0 -30 5 -30 15 0 8 -7 15 -15 15 -11 0 -15 12 -15
44 0 24 -5 46 -10 48 -6 2 -13 21 -17 43 -3 22 -12 46 -20 53 -7 7 -13 22 -13
33 0 10 -4 19 -9 19 -5 0 -12 14 -16 30 -4 17 -11 30 -16 30 -5 0 -11 11 -15
25 -3 14 -10 25 -14 25 -5 0 -11 14 -15 30 -4 17 -11 30 -16 30 -5 0 -9 7 -9
15 0 8 -6 15 -14 15 -8 0 -17 11 -20 25 -4 14 -11 25 -16 25 -6 0 -10 9 -10
20 0 11 -7 20 -15 20 -8 0 -15 7 -15 15 0 8 -7 15 -15 15 -8 0 -15 7 -15 15 0
8 -7 15 -15 15 -8 0 -15 7 -15 15 0 8 -4 15 -10 15 -5 0 -12 11 -16 25 -3 14
-12 25 -19 25 -8 0 -34 20 -58 45 -25 25 -50 45 -56 45 -6 0 -11 7 -11 15 0 8
-9 15 -20 15 -11 0 -20 7 -20 15 0 9 -9 15 -25 15 -16 0 -25 6 -25 15 0 8 -7
15 -15 15 -8 0 -15 7 -15 15 0 10 -10 15 -30 15 -20 0 -30 5 -30 15 0 8 -7 15
-15 15 -8 0 -15 4 -15 10 0 5 -18 13 -39 16 -22 4 -42 13 -45 20 -3 8 -16 14
-30 14 -13 0 -26 7 -30 15 -3 9 -18 15 -35 15 -16 0 -31 5 -33 11 -2 5 -22 13
-46 16 -23 3 -42 9 -42 14 0 4 -31 11 -70 15 -38 3 -70 10 -70 14 0 4 -31 9
-69 12 l-69 4 -71 72 c-39 39 -76 72 -81 72 -6 0 -10 7 -10 15 0 9 -9 15 -25
15 -16 0 -25 6 -25 15 0 8 -7 15 -15 15 -8 0 -15 7 -15 15 0 10 -10 15 -30 15
-20 0 -30 5 -30 15 0 9 -10 15 -26 15 -14 0 -32 7 -40 15 -9 8 -28 15 -44 15
-16 0 -30 7 -34 15 -3 10 -19 15 -45 15 -23 0 -41 5 -43 13 -4 9 -62 12 -248
12 -186 0 -244 -3 -247 -12 -3 -8 -22 -13 -48 -13 -25 0 -50 -6 -59 -15 -8 -8
-26 -15 -41 -15 -14 0 -28 -7 -31 -15 -4 -9 -19 -15 -35 -15 -19 0 -29 -5 -29
-15 0 -9 -9 -15 -25 -15 -14 0 -28 -7 -31 -15 -4 -8 -17 -15 -30 -15 -15 0
-24 -6 -24 -15 0 -8 -9 -15 -20 -15 -11 0 -20 -7 -20 -15 0 -9 -9 -15 -25 -15
-16 0 -25 -6 -25 -15 0 -8 -7 -15 -15 -15 -8 0 -15 -7 -15 -15 0 -8 -7 -15
-15 -15 -8 0 -15 -4 -15 -10 0 -5 -7 -10 -15 -10 -8 0 -15 5 -15 10 0 6 -7 10
-15 10 -8 0 -15 6 -15 14 0 8 -11 17 -25 20 -14 4 -25 11 -25 16 0 6 -7 10
-15 10 -9 0 -18 7 -21 15 -4 8 -12 15 -20 15 -8 0 -14 4 -14 10 0 5 -11 12
-24 16 -14 3 -27 12 -30 20 -3 8 -17 14 -31 14 -16 0 -25 6 -25 15 0 10 -10
15 -29 15 -16 0 -31 6 -35 15 -3 9 -18 15 -40 15 -21 0 -36 6 -40 15 -4 10
-20 15 -50 15 -27 0 -46 5 -48 13 -4 9 -53 12 -199 13 -107 1 -209 0 -226 -3z
m309 -335 c2 -6 31 -13 63 -16 33 -3 65 -11 73 -18 7 -8 26 -14 42 -14 16 0
30 -7 34 -15 3 -8 15 -15 27 -15 12 0 32 -11 45 -25 13 -14 27 -25 33 -25 15
0 101 -90 101 -106 0 -8 4 -14 9 -14 5 0 12 -13 16 -30 4 -16 11 -30 16 -30 5
0 9 -52 9 -115 l0 -115 -39 0 c-25 0 -41 5 -45 15 -3 8 -17 15 -31 15 -15 0
-33 7 -41 15 -9 9 -34 15 -59 15 -24 0 -45 5 -47 10 -5 15 -201 16 -206 1 -2
-6 -27 -11 -58 -11 -41 0 -54 -4 -54 -15 0 -10 -10 -15 -30 -15 -20 0 -30 -5
-30 -15 0 -10 -10 -15 -30 -15 -20 0 -30 -5 -30 -15 0 -8 -7 -15 -15 -15 -8 0
-15 -7 -15 -15 0 -8 -7 -15 -15 -15 -8 0 -15 -7 -15 -15 0 -8 -7 -15 -15 -15
-8 0 -15 -7 -15 -15 0 -8 -7 -15 -15 -15 -8 0 -15 -7 -15 -15 0 -8 -4 -15 -10
-15 -5 0 -13 -18 -16 -40 -4 -22 -10 -40 -15 -40 -5 0 -9 -16 -9 -35 0 -19 5
-35 10 -35 6 0 10 -13 10 -29 0 -17 11 -40 27 -57 25 -27 32 -29 102 -29 50 0
76 4 79 13 2 6 10 12 18 12 8 0 14 7 14 15 0 8 7 15 15 15 8 0 15 7 15 15 0 8
7 15 15 15 8 0 15 7 15 15 0 8 6 15 14 15 8 0 22 7 30 15 12 13 40 16 128 17
74 0 114 -4 116 -11 2 -6 21 -14 42 -17 21 -4 41 -13 44 -20 3 -8 12 -14 21
-14 8 0 15 -7 15 -15 0 -8 4 -15 10 -15 15 0 50 -33 50 -47 0 -7 5 -13 10 -13
6 0 10 -6 10 -14 0 -8 7 -22 16 -30 12 -12 17 -48 21 -161 3 -80 10 -145 15
-145 4 0 8 -43 8 -95 0 -75 -4 -99 -17 -115 -21 -24 -33 -26 -33 -5 0 10 -10
15 -30 15 -20 0 -30 5 -30 15 0 11 -12 15 -46 15 -27 0 -51 6 -60 15 -12 11
-39 15 -105 15 -72 0 -89 -3 -89 -15 0 -12 -13 -15 -55 -15 -42 0 -55 -3 -55
-15 0 -8 -7 -15 -15 -15 -8 0 -15 -7 -15 -15 0 -8 -4 -15 -10 -15 -13 0 -50
-37 -50 -50 0 -5 -7 -10 -15 -10 -12 0 -15 -15 -15 -75 0 -42 4 -75 10 -75 5
0 12 -11 16 -24 4 -17 15 -27 35 -31 16 -4 29 -11 29 -16 0 -14 138 -11 143 4
5 16 165 17 175 0 4 -6 20 -15 35 -18 15 -4 27 -11 27 -16 0 -5 7 -9 15 -9 8
0 15 -7 15 -15 0 -8 7 -15 15 -15 8 0 15 -7 15 -15 0 -8 7 -15 15 -15 8 0 15
-7 15 -15 0 -8 4 -15 9 -15 5 0 12 -13 16 -30 4 -16 11 -30 16 -30 5 0 9 -11
9 -25 0 -14 -4 -25 -9 -25 -5 0 -12 -29 -16 -65 -3 -36 -11 -65 -16 -65 -5 0
-9 -11 -9 -25 0 -14 -7 -28 -15 -31 -8 -4 -15 -17 -15 -30 0 -15 -6 -24 -15
-24 -8 0 -15 -7 -15 -15 0 -8 -7 -15 -15 -15 -8 0 -15 -7 -15 -15 0 -8 -7 -15
-15 -15 -8 0 -15 -7 -15 -15 0 -8 -7 -15 -15 -15 -8 0 -15 -7 -15 -15 0 -8 -7
-15 -15 -15 -8 0 -15 -7 -15 -15 0 -8 -7 -15 -15 -15 -8 0 -15 -4 -15 -10 0
-5 -11 -10 -25 -10 -14 0 -28 -6 -31 -14 -3 -8 -25 -17 -50 -21 -24 -3 -44
-10 -44 -16 0 -5 -61 -9 -145 -9 -89 0 -145 4 -145 10 0 5 -18 13 -40 16 -22
4 -40 10 -40 14 0 5 -13 11 -30 15 -16 4 -30 11 -30 16 0 5 -7 9 -15 9 -9 0
-18 6 -21 14 -3 8 -16 17 -30 20 -13 4 -24 11 -24 16 0 6 -7 10 -15 10 -8 0
-15 7 -15 15 0 8 -7 15 -15 15 -8 0 -15 7 -15 15 0 8 -7 15 -15 15 -8 0 -15 7
-15 15 0 8 -7 15 -15 15 -10 0 -15 10 -15 30 0 20 -5 30 -15 30 -10 0 -15 10
-15 29 0 16 -6 31 -12 33 -8 3 -14 33 -16 86 -3 62 -8 82 -18 82 -8 0 -14 7
-14 15 0 8 -4 15 -10 15 -5 0 -10 7 -10 15 0 8 -9 15 -20 15 -11 0 -20 7 -20
15 0 11 -13 15 -54 15 -39 0 -55 -4 -60 -15 -3 -8 -17 -15 -31 -15 -16 0 -25
-6 -25 -15 0 -8 -7 -15 -15 -15 -8 0 -15 -7 -15 -15 0 -8 -7 -15 -15 -15 -11
0 -15 -11 -15 -40 0 -27 -5 -43 -15 -46 -10 -4 -15 -20 -15 -45 0 -28 4 -39
15 -39 12 0 15 -13 15 -59 0 -43 4 -60 15 -65 10 -3 15 -19 15 -46 0 -29 4
-40 15 -40 8 0 15 -7 15 -15 0 -8 4 -15 9 -15 5 0 12 -12 16 -27 3 -15 17 -37
31 -50 13 -12 24 -26 24 -31 0 -19 141 -152 160 -152 11 0 20 -7 20 -15 0 -8
7 -15 15 -15 8 0 15 -7 15 -15 0 -10 10 -15 30 -15 20 0 30 -5 30 -15 0 -9 9
-15 25 -15 16 0 25 -6 25 -15 0 -10 10 -15 30 -15 20 0 30 -5 30 -15 0 -11 12
-15 44 -15 30 0 46 -5 50 -15 4 -11 22 -15 75 -15 47 0 71 -4 74 -12 2 -9 31
-13 97 -13 66 0 95 4 98 13 2 8 27 12 78 12 59 0 74 3 74 15 0 11 12 15 45 15
33 0 45 4 45 15 0 10 10 15 30 15 20 0 30 5 30 15 0 10 10 15 30 15 20 0 30 5
30 15 0 10 10 15 30 15 20 0 30 5 30 15 0 8 6 15 14 15 8 0 17 6 19 13 4 9 8
8 16 -3 7 -10 11 -153 11 -427 0 -320 3 -412 13 -416 8 -4 9 -8 1 -14 -7 -5
-14 -67 -17 -152 -4 -80 -11 -147 -16 -150 -5 -3 -12 -25 -16 -48 -4 -24 -10
-43 -15 -43 -4 0 -10 -18 -14 -40 -3 -22 -10 -40 -15 -40 -5 0 -12 -13 -16
-30 -4 -16 -10 -30 -15 -30 -4 0 -11 -11 -14 -25 -4 -14 -11 -25 -16 -25 -6 0
-10 -9 -10 -20 0 -11 -6 -20 -14 -20 -8 0 -17 -11 -20 -25 -4 -14 -11 -25 -16
-25 -6 0 -10 -7 -10 -15 0 -8 -7 -15 -15 -15 -8 0 -15 -7 -15 -15 0 -8 -7 -15
-15 -15 -8 0 -15 -6 -15 -14 0 -8 -11 -17 -25 -20 -14 -4 -25 -11 -25 -16 0
-6 -7 -10 -15 -10 -9 0 -18 -7 -21 -15 -4 -8 -12 -15 -20 -15 -8 0 -14 -7 -14
-15 0 -10 -10 -15 -30 -15 -20 0 -30 -5 -30 -15 0 -11 -11 -15 -41 -15 -23 0
-47 -7 -55 -15 -12 -12 -43 -15 -145 -15 -108 0 -129 2 -129 15 0 8 -6 15 -13
15 -14 0 -47 35 -47 50 0 6 -6 10 -14 10 -8 0 -17 11 -20 25 -4 14 -11 25 -16
25 -6 0 -10 9 -10 20 0 11 -7 20 -15 20 -9 0 -15 9 -15 25 0 14 -7 28 -15 31
-8 4 -15 12 -15 20 0 8 -7 14 -15 14 -8 0 -15 7 -15 15 0 8 -7 15 -15 15 -9 0
-15 9 -15 25 0 16 -6 25 -15 25 -8 0 -15 7 -15 15 0 8 -7 15 -15 15 -8 0 -15
6 -15 14 0 8 -11 17 -25 20 -14 4 -25 11 -25 16 0 6 -7 10 -15 10 -9 0 -18 7
-21 15 -4 8 -12 15 -20 15 -8 0 -14 7 -14 15 0 10 -10 15 -30 15 -20 0 -30 5
-30 15 0 11 -11 15 -40 15 -29 0 -40 4 -40 15 0 11 -12 15 -44 15 -27 0 -46 5
-48 13 -4 9 -47 13 -161 15 -137 3 -157 1 -157 -12 0 -13 -12 -16 -60 -16 -47
0 -60 -3 -60 -15 0 -10 -10 -15 -30 -15 -20 0 -30 -5 -30 -15 0 -11 -11 -15
-40 -15 -29 0 -40 -4 -40 -15 0 -10 -10 -15 -30 -15 -20 0 -30 -5 -30 -15 0
-8 -7 -15 -16 -15 -8 0 -22 -7 -30 -15 -9 -8 -28 -15 -44 -15 -16 0 -30 -5
-32 -12 -2 -6 -30 -13 -61 -16 -31 -2 -57 -8 -57 -13 0 -5 -40 -9 -90 -9 -53
0 -90 4 -90 10 0 6 -25 10 -55 10 -42 0 -55 3 -55 15 0 10 -10 15 -30 15 -20
0 -30 5 -30 15 0 10 -10 15 -30 15 -20 0 -30 5 -30 15 0 8 -7 15 -15 15 -8 0
-15 7 -15 15 0 9 -9 15 -25 15 -16 0 -25 6 -25 15 0 8 -7 15 -15 15 -8 0 -15
7 -15 15 0 8 -9 23 -20 32 -11 10 -20 23 -20 30 0 7 -4 13 -10 13 -5 0 -10 7
-10 15 0 8 -7 15 -15 15 -9 0 -15 9 -15 25 0 14 -7 28 -15 31 -8 4 -15 17 -15
30 0 14 -7 27 -15 30 -10 4 -15 20 -15 45 0 28 -4 39 -15 39 -11 0 -15 12 -15
45 0 33 -4 45 -15 45 -13 0 -15 31 -15 220 0 189 2 220 15 220 11 0 15 11 15
41 0 23 7 47 15 55 8 9 15 28 15 44 0 16 7 30 15 34 10 3 15 19 15 46 0 22 5
40 10 40 6 0 10 27 10 60 0 33 -4 60 -10 60 -6 0 -10 40 -10 101 0 76 4 104
15 115 8 9 15 29 15 45 0 19 5 29 15 29 8 0 15 7 15 15 0 9 9 15 25 15 16 0
25 6 25 15 0 11 12 15 45 15 33 0 45 4 45 15 0 12 17 15 90 15 73 0 90 -3 90
-15 0 -12 13 -15 55 -15 42 0 55 -3 55 -15 0 -8 9 -15 20 -15 11 0 20 -4 20
-10 0 -5 11 -12 25 -16 14 -3 25 -12 25 -20 0 -8 5 -14 10 -14 6 0 21 -11 34
-25 13 -14 28 -25 35 -25 6 0 11 -9 11 -20 0 -11 7 -20 15 -20 8 0 15 -7 15
-15 0 -8 7 -15 15 -15 9 0 15 -9 15 -24 0 -13 7 -26 15 -30 8 -3 15 -10 15
-16 0 -6 7 -18 15 -26 8 -9 15 -29 15 -45 0 -16 4 -29 9 -29 5 0 12 -13 16
-30 4 -16 11 -30 16 -30 5 0 9 -7 9 -15 0 -10 10 -15 30 -15 20 0 30 -5 30
-15 0 -11 12 -15 45 -15 33 0 45 4 45 15 0 10 10 15 30 15 20 0 30 5 30 15 0
9 6 18 14 21 7 3 16 23 20 45 3 21 11 39 16 39 6 0 10 27 10 60 0 47 -3 60
-15 60 -11 0 -15 11 -15 40 0 29 -4 40 -15 40 -10 0 -15 10 -15 30 0 20 -5 30
-15 30 -8 0 -15 9 -15 20 0 11 -4 20 -10 20 -5 0 -12 11 -16 25 -3 14 -12 25
-20 25 -8 0 -14 7 -14 15 0 8 -4 15 -10 15 -5 0 -10 7 -10 15 0 8 -6 15 -14
15 -8 0 -17 11 -20 25 -4 15 -16 27 -31 31 -14 3 -25 12 -25 20 0 8 -7 14 -15
14 -8 0 -15 7 -15 15 0 8 -7 15 -15 15 -8 0 -15 7 -15 15 0 8 -7 15 -15 15 -8
0 -15 4 -15 9 0 5 -13 12 -30 16 -16 4 -30 10 -30 15 0 4 -11 11 -25 14 -14 4
-25 11 -25 16 0 5 -16 12 -35 16 -19 3 -35 10 -35 15 0 4 -17 11 -37 15 -21 4
-41 12 -45 17 -4 7 -75 11 -192 11 l-186 1 0 28 c0 15 4 27 9 27 5 0 11 26 13
57 3 31 10 59 16 61 7 2 12 16 12 32 0 16 7 35 15 44 8 8 15 22 15 30 0 9 7
16 15 16 9 0 15 9 15 25 0 16 6 25 15 25 10 0 15 10 15 30 0 20 5 30 15 30 8
0 15 7 15 15 0 8 7 15 15 15 8 0 15 7 15 15 0 8 7 15 15 15 8 0 15 7 15 15 0
8 7 15 15 15 8 0 15 7 15 15 0 8 5 15 11 15 6 0 17 7 25 15 9 8 24 15 35 15
10 0 19 7 19 15 0 10 10 15 29 15 16 0 31 6 34 13 2 8 34 12 112 12 78 0 110
-4 113 -12 2 -7 15 -13 28 -13 14 0 27 -7 30 -15 4 -8 12 -15 20 -15 8 0 14
-7 14 -15 0 -8 5 -15 10 -15 6 0 10 -7 10 -15 0 -8 6 -15 14 -15 8 0 17 -13
21 -30 4 -16 11 -30 16 -30 5 0 9 -13 9 -29 0 -16 7 -36 15 -45 8 -8 15 -22
15 -30 0 -9 6 -16 14 -16 8 0 16 -7 20 -15 3 -8 12 -15 21 -15 8 0 15 -4 15
-10 0 -5 18 -10 40 -10 22 0 40 4 40 9 0 5 14 12 30 16 17 4 30 11 30 16 0 5
7 9 15 9 8 0 15 6 15 14 0 8 7 16 15 20 10 4 15 20 15 51 0 25 5 45 10 45 6 0
10 11 10 25 0 14 -4 25 -10 25 -5 0 -10 20 -10 44 0 25 -6 51 -13 58 -8 7 -17
26 -21 41 -3 15 -11 27 -16 27 -6 0 -10 9 -10 20 0 11 -7 20 -15 20 -8 0 -15
7 -15 15 0 8 -7 15 -15 15 -8 0 -15 5 -15 11 0 14 -55 69 -70 69 -6 0 -13 7
-16 15 -4 8 -12 15 -20 15 -8 0 -14 7 -14 15 0 10 -10 15 -30 15 -20 0 -30 5
-30 15 0 11 -11 15 -40 15 -29 0 -40 4 -40 15 0 12 -15 15 -75 15 -60 0 -75 3
-75 15 0 8 7 15 15 15 10 0 15 10 15 30 0 17 4 30 10 30 5 0 13 12 16 27 4 15
13 34 21 41 7 7 13 19 13 27 0 7 7 15 15 19 8 3 15 12 15 21 0 8 4 15 10 15 5
0 12 11 16 25 3 14 12 25 20 25 8 0 14 7 14 15 0 8 5 15 10 15 6 0 10 7 10 15
0 8 7 15 15 15 8 0 15 7 15 15 0 8 7 15 15 15 8 0 15 7 15 15 0 8 7 15 15 15
8 0 15 7 15 15 0 8 7 15 15 15 8 0 15 7 15 15 0 8 7 15 15 15 8 0 15 7 15 15
0 8 6 15 14 15 8 0 16 7 20 15 3 8 17 15 31 15 16 0 25 6 25 15 0 8 7 15 15
15 8 0 15 4 15 9 0 5 14 12 30 16 17 4 30 10 30 15 0 5 14 11 30 15 17 4 30
10 30 15 0 4 18 10 40 14 22 3 40 10 40 15 0 5 19 11 42 14 24 3 44 11 46 16
2 6 10 11 18 11 12 0 14 -39 14 -235 0 -202 2 -235 15 -235 11 0 15 -11 15
-40 0 -29 4 -40 15 -40 8 0 15 -7 15 -15 0 -8 7 -15 15 -15 8 0 15 -7 15 -15
0 -15 49 -21 128 -16 45 4 112 71 112 112 0 16 5 29 10 29 14 0 13 67 -1 72
-15 5 -17 357 -2 366 5 4 13 25 16 47 4 22 11 41 17 43 5 2 10 17 10 33 0 18
5 29 14 29 8 0 17 11 20 25 4 14 11 25 16 25 6 0 10 7 10 15 0 8 7 15 15 15 8
0 15 6 15 14 0 8 14 17 30 21 17 4 30 13 30 21 0 8 7 14 15 14 8 0 15 4 15 9
0 5 14 12 30 16 17 4 30 10 30 15 0 4 18 10 40 14 22 3 40 10 40 15 0 4 28 11
62 14 34 3 64 10 66 16 5 16 219 15 224 -1z m1528 2 c0 -5 27 -12 60 -16 33
-4 60 -10 60 -15 0 -5 18 -12 39 -15 22 -4 42 -13 45 -20 3 -8 12 -14 21 -14
8 0 15 -4 15 -9 0 -5 10 -13 22 -16 11 -4 31 -18 43 -31 12 -13 27 -24 34 -24
6 0 11 -7 11 -15 0 -8 7 -15 15 -15 10 0 15 -10 15 -30 0 -20 5 -30 15 -30 9
0 15 -9 15 -24 0 -13 7 -26 15 -30 9 -3 15 -18 15 -35 0 -16 6 -31 13 -33 9
-4 13 -67 15 -262 2 -213 5 -260 17 -272 8 -9 15 -22 15 -29 0 -8 10 -17 23
-21 12 -4 25 -12 29 -18 5 -7 33 -10 72 -9 60 3 68 6 101 38 19 20 35 45 35
55 0 11 7 20 15 20 12 0 15 15 15 75 0 43 4 75 10 75 6 0 10 14 10 30 0 17 -4
30 -10 30 -6 0 -10 55 -10 145 0 118 3 145 14 145 8 0 16 -5 18 -10 2 -6 21
-13 43 -17 22 -3 43 -10 46 -15 3 -5 23 -12 45 -15 21 -4 45 -12 52 -20 7 -7
22 -13 33 -13 10 0 19 -4 19 -10 0 -5 11 -12 25 -16 14 -3 25 -10 25 -14 0 -5
14 -11 30 -15 17 -4 30 -13 30 -21 0 -8 7 -14 15 -14 8 0 15 -4 15 -10 0 -5 7
-10 15 -10 8 0 15 -6 15 -14 0 -8 11 -17 25 -20 14 -4 25 -11 25 -16 0 -6 7
-10 15 -10 8 0 15 -7 15 -15 0 -8 7 -15 15 -15 8 0 15 -7 15 -15 0 -8 7 -15
15 -15 8 0 15 -7 15 -15 0 -8 6 -15 14 -15 8 0 17 -11 20 -25 4 -14 11 -25 16
-25 6 0 10 -7 10 -15 0 -9 7 -18 15 -21 8 -4 15 -12 15 -20 0 -8 7 -14 15 -14
9 0 15 -9 15 -25 0 -16 6 -25 15 -25 8 0 15 -9 15 -19 0 -11 6 -26 13 -33 8
-7 17 -26 21 -41 3 -15 11 -27 16 -27 6 0 10 -13 10 -30 0 -30 0 -30 -56 -30
-36 0 -61 -5 -70 -15 -9 -8 -29 -15 -45 -15 -17 0 -37 -7 -45 -15 -9 -8 -24
-15 -35 -15 -10 0 -19 -4 -19 -10 0 -5 -11 -12 -25 -16 -14 -3 -25 -12 -25
-20 0 -8 -7 -14 -15 -14 -8 0 -15 -4 -15 -10 0 -5 -7 -10 -15 -10 -8 0 -15 -7
-15 -15 0 -8 -7 -15 -15 -15 -8 0 -15 -7 -15 -15 0 -8 -7 -15 -15 -15 -8 0
-15 -9 -15 -20 0 -11 -7 -20 -15 -20 -9 0 -15 -9 -15 -24 0 -13 -7 -26 -15
-30 -8 -3 -15 -16 -15 -30 0 -13 -7 -26 -15 -30 -10 -3 -15 -19 -15 -46 0 -22
-4 -40 -10 -40 -5 0 -10 -13 -10 -30 0 -16 5 -30 10 -30 6 0 10 -13 10 -29 0
-16 7 -36 15 -45 8 -8 15 -22 15 -30 0 -9 7 -16 15 -16 8 0 15 -7 15 -15 0 -8
6 -15 14 -15 8 0 16 -5 18 -10 2 -6 27 -13 55 -17 43 -5 54 -3 59 11 3 9 15
16 26 16 27 0 68 40 68 66 0 12 7 24 15 28 10 3 15 19 15 46 0 22 4 40 9 40 5
0 12 12 15 26 9 35 68 94 94 94 11 0 22 6 25 13 2 8 32 12 102 12 70 0 100 -4
103 -12 2 -8 20 -13 43 -13 28 0 39 -4 39 -15 0 -8 9 -15 20 -15 11 0 20 -7
20 -15 0 -9 9 -15 25 -15 16 0 25 -6 25 -15 0 -8 7 -15 15 -15 8 0 15 -7 15
-15 0 -8 7 -15 15 -15 8 0 15 -7 15 -15 0 -8 7 -15 15 -15 8 0 15 -7 15 -15 0
-8 7 -15 15 -15 10 0 15 -10 15 -30 0 -20 5 -30 15 -30 9 0 15 -9 15 -25 0
-16 6 -25 15 -25 8 0 15 -7 15 -16 0 -8 7 -22 15 -30 8 -9 15 -28 15 -44 0
-16 5 -30 10 -32 6 -2 13 -21 17 -43 3 -22 9 -42 13 -45 4 -3 11 -23 14 -46
l7 -41 -176 0 c-120 1 -179 -3 -183 -11 -4 -6 -31 -14 -60 -18 -28 -3 -52 -10
-52 -14 0 -5 -13 -11 -30 -15 -16 -4 -30 -10 -30 -15 0 -5 -13 -11 -30 -15
-16 -4 -30 -10 -30 -15 0 -4 -11 -11 -25 -14 -14 -4 -25 -11 -25 -16 0 -6 -7
-10 -15 -10 -9 0 -18 -7 -21 -15 -4 -8 -12 -15 -20 -15 -8 0 -14 -7 -14 -15 0
-8 -7 -15 -15 -15 -8 0 -15 -7 -15 -15 0 -8 -7 -15 -15 -15 -8 0 -15 -7 -15
-15 0 -8 -7 -15 -15 -15 -8 0 -15 -7 -15 -15 0 -8 -7 -15 -15 -15 -8 0 -15 -7
-15 -15 0 -8 -4 -15 -10 -15 -5 0 -10 -7 -10 -15 0 -8 -6 -15 -14 -15 -8 0
-17 -11 -20 -25 -4 -14 -11 -25 -16 -25 -6 0 -10 -9 -10 -20 0 -11 -7 -20 -15
-20 -10 0 -15 -10 -15 -30 0 -20 -5 -30 -15 -30 -11 0 -15 -12 -15 -45 0 -33
-4 -45 -15 -45 -12 0 -15 -13 -15 -59 0 -40 5 -65 15 -75 8 -8 15 -26 15 -40
0 -16 6 -26 15 -26 8 0 15 -7 15 -15 0 -9 10 -15 26 -15 14 0 32 -7 40 -15 9
-8 31 -15 50 -15 24 0 34 5 34 15 0 9 9 15 23 15 26 0 54 28 63 65 3 14 10 25
14 25 5 0 11 14 15 30 4 17 11 30 16 30 5 0 9 11 9 25 0 14 7 28 15 31 8 4 15
17 15 30 0 14 6 27 14 30 8 3 17 16 20 30 4 13 11 24 16 24 6 0 10 7 10 15 0
8 7 15 15 15 8 0 15 6 15 14 0 8 14 17 30 21 17 4 30 11 30 16 0 5 7 9 15 9 8
0 15 7 15 15 0 10 10 15 30 15 20 0 30 5 30 15 0 11 11 15 40 15 29 0 40 4 40
15 0 13 20 15 120 15 100 0 120 -2 120 -15 0 -10 10 -15 30 -15 20 0 30 -5 30
-15 0 -8 4 -15 10 -15 15 0 50 -33 50 -47 0 -7 4 -13 9 -13 5 0 12 -11 15 -25
4 -14 11 -25 16 -25 6 0 10 -48 10 -120 0 -73 -4 -120 -10 -120 -5 0 -10 -20
-10 -45 0 -25 5 -45 10 -45 6 0 10 -13 10 -29 0 -16 7 -36 15 -45 8 -8 15 -26
15 -41 0 -14 7 -28 15 -31 10 -4 15 -20 15 -45 0 -27 4 -39 14 -39 11 0 15
-21 18 -87 2 -57 7 -88 16 -91 7 -2 12 -23 12 -57 0 -34 -5 -55 -12 -57 -9 -3
-14 -34 -16 -91 -3 -66 -7 -87 -18 -87 -10 0 -14 -13 -14 -45 0 -33 -4 -45
-15 -45 -11 0 -15 -11 -15 -39 0 -25 -5 -41 -15 -45 -8 -3 -15 -16 -15 -30 0
-13 -7 -26 -15 -30 -8 -3 -15 -12 -15 -21 0 -8 -4 -15 -10 -15 -5 0 -12 -11
-16 -25 -3 -14 -10 -25 -15 -25 -5 0 -9 -6 -9 -13 0 -7 -9 -20 -20 -30 -11 -9
-20 -24 -20 -32 0 -8 -7 -15 -15 -15 -8 0 -15 -7 -15 -15 0 -8 -7 -15 -15 -15
-8 0 -15 -7 -15 -15 0 -9 -9 -15 -25 -15 -16 0 -25 -6 -25 -15 0 -8 -7 -15
-15 -15 -8 0 -15 -7 -15 -15 0 -11 -11 -15 -39 -15 -25 0 -41 -5 -45 -15 -4
-11 -21 -15 -61 -15 -30 0 -55 -4 -55 -10 0 -5 -13 -10 -30 -10 -16 0 -30 4
-30 9 0 5 -39 11 -87 13 -57 2 -88 7 -91 16 -2 6 -16 12 -32 12 -16 0 -35 7
-44 15 -8 8 -28 15 -45 15 -21 0 -31 5 -31 15 0 11 -11 15 -40 15 -29 0 -40 4
-40 15 0 10 -10 15 -30 15 -20 0 -30 5 -30 15 0 11 -12 15 -45 15 -33 0 -45 4
-45 15 0 11 -13 15 -54 15 -39 0 -55 4 -60 15 -4 12 -30 15 -140 15 -106 0
-138 -3 -150 -15 -9 -10 -34 -15 -70 -15 -43 0 -56 -3 -56 -15 0 -10 -10 -15
-29 -15 -16 0 -36 -7 -45 -15 -8 -8 -26 -15 -40 -15 -16 0 -26 -6 -26 -15 0
-8 -7 -15 -15 -15 -8 0 -15 -7 -15 -15 0 -8 -9 -15 -20 -15 -11 0 -20 -4 -20
-10 0 -5 -11 -12 -25 -16 -14 -3 -25 -12 -25 -20 0 -8 -7 -14 -15 -14 -8 0
-15 -7 -15 -15 0 -8 -7 -15 -15 -15 -9 0 -15 -9 -15 -25 0 -16 -6 -25 -15 -25
-8 0 -15 -7 -15 -15 0 -8 -7 -15 -15 -15 -8 0 -15 -9 -15 -20 0 -11 -4 -20
-10 -20 -5 0 -12 -11 -16 -25 -3 -14 -12 -25 -20 -25 -9 0 -14 -11 -14 -30 0
-20 -5 -30 -15 -30 -8 0 -15 -7 -15 -15 0 -8 -4 -15 -10 -15 -5 0 -10 -7 -10
-15 0 -8 -7 -15 -15 -15 -8 0 -15 -7 -15 -15 0 -8 -6 -15 -14 -15 -8 0 -16 -7
-20 -15 -4 -12 -29 -15 -135 -15 -102 0 -133 3 -145 15 -8 8 -28 15 -45 15
-16 0 -36 7 -45 15 -8 8 -26 15 -40 15 -16 0 -26 6 -26 15 0 8 -6 15 -14 15
-8 0 -16 7 -20 15 -3 8 -17 15 -31 15 -16 0 -25 6 -25 15 0 8 -7 15 -15 15 -8
0 -15 7 -15 15 0 8 -7 15 -15 15 -8 0 -15 7 -15 15 0 8 -7 15 -15 15 -8 0 -15
7 -15 15 0 8 -7 15 -15 15 -9 0 -15 9 -15 25 0 16 -6 25 -15 25 -8 0 -15 9
-15 20 0 11 -4 20 -10 20 -5 0 -12 11 -16 25 -3 14 -10 25 -14 25 -5 0 -11 14
-15 30 -4 17 -10 30 -14 30 -5 0 -11 19 -14 41 -3 23 -10 45 -15 48 -5 3 -12
24 -15 45 -4 22 -11 42 -16 45 -15 10 -17 1164 -2 1169 6 2 11 -3 11 -12 0 -9
8 -16 20 -16 11 0 20 -7 20 -15 0 -9 9 -15 25 -15 16 0 25 -6 25 -15 0 -10 10
-15 30 -15 20 0 30 -5 30 -15 0 -10 10 -15 30 -15 20 0 30 -5 30 -15 0 -11 12
-15 44 -15 27 0 46 -5 48 -12 3 -9 35 -14 101 -16 53 -2 97 -8 97 -13 0 -5 20
-9 45 -9 25 0 45 5 45 10 0 6 40 10 100 10 80 0 102 3 106 15 4 10 20 15 45
15 28 0 39 4 39 15 0 10 10 15 30 15 20 0 30 5 30 15 0 10 10 15 30 15 20 0
30 5 30 15 0 10 10 15 30 15 20 0 30 5 30 15 0 8 7 15 15 15 8 0 15 7 15 15 0
8 5 15 11 15 7 0 22 11 35 25 13 14 28 25 34 25 5 0 10 7 10 15 0 8 7 15 15
15 8 0 15 5 15 10 0 6 18 27 39 48 22 21 43 50 46 65 4 15 11 27 16 27 5 0 9
7 9 15 0 9 6 18 14 21 7 3 16 23 20 45 3 21 10 39 15 39 5 0 11 19 14 42 3 24
11 44 16 46 14 5 15 212 1 212 -5 0 -12 11 -16 25 -3 14 -12 25 -20 25 -8 0
-14 7 -14 15 0 8 -7 15 -15 15 -8 0 -15 7 -15 15 0 12 -14 15 -70 15 -56 0
-70 -3 -70 -15 0 -8 -4 -15 -10 -15 -5 0 -19 -9 -30 -20 -11 -11 -20 -24 -20
-30 0 -5 -6 -10 -14 -10 -9 0 -15 -20 -19 -67 -4 -38 -11 -69 -17 -71 -5 -2
-10 -24 -10 -48 0 -32 -4 -44 -15 -44 -8 0 -15 -9 -15 -20 0 -11 -4 -20 -10
-20 -5 0 -12 -11 -16 -25 -3 -14 -12 -25 -20 -25 -8 0 -14 -7 -14 -15 0 -8 -7
-15 -15 -15 -8 0 -15 -7 -15 -15 0 -8 -7 -15 -15 -15 -8 0 -15 -7 -15 -15 0
-8 -7 -15 -15 -15 -8 0 -15 -4 -15 -10 0 -5 -11 -12 -25 -16 -14 -3 -25 -10
-25 -14 0 -5 -13 -11 -30 -15 -16 -4 -30 -10 -30 -15 0 -4 -27 -11 -60 -15
-33 -4 -60 -11 -60 -16 0 -5 -47 -9 -105 -9 -58 0 -105 4 -105 9 0 5 -25 13
-55 16 -30 4 -55 11 -55 15 0 5 -13 11 -30 15 -16 4 -30 10 -30 15 0 5 -13 11
-30 15 -16 4 -30 11 -30 16 0 5 -7 9 -15 9 -8 0 -15 7 -15 15 0 8 -7 15 -15
15 -8 0 -15 7 -15 15 0 8 -7 15 -15 15 -8 0 -15 7 -15 15 0 8 -7 15 -15 15 -8
0 -15 7 -15 15 0 8 -4 15 -10 15 -5 0 -12 11 -16 24 -3 14 -12 27 -20 30 -8 3
-14 12 -14 21 0 8 -4 15 -9 15 -5 0 -11 23 -13 52 -3 29 -11 54 -17 56 -13 4
-15 92 -2 92 5 0 12 14 16 30 4 17 11 30 16 30 5 0 9 7 9 15 0 8 7 15 15 15 8
0 15 7 15 15 0 8 7 15 15 15 8 0 15 7 15 15 0 8 7 15 16 15 8 0 22 7 30 15 9
8 28 15 44 15 16 0 30 5 32 12 6 16 141 15 146 -1 2 -7 29 -11 68 -11 56 0 68
3 88 25 13 14 28 25 35 25 6 0 11 7 11 15 0 9 7 18 15 21 11 5 15 23 15 75 0
55 -3 69 -15 69 -8 0 -15 7 -15 15 0 8 -4 15 -10 15 -5 0 -10 7 -10 15 0 8 -7
15 -15 15 -8 0 -15 7 -15 15 0 8 -9 15 -20 15 -11 0 -20 7 -20 15 0 12 -13 15
-55 15 -44 0 -55 3 -55 16 0 14 -12 16 -87 12 -57 -2 -88 -7 -91 -16 -2 -7
-23 -12 -58 -12 -41 0 -54 -4 -54 -15 0 -10 -11 -15 -35 -15 -24 0 -35 -5 -35
-15 0 -23 -17 -18 -23 8 -3 12 -5 128 -4 258 2 209 4 237 20 253 9 10 17 26
17 37 0 10 7 19 15 19 8 0 15 5 15 11 0 14 55 69 69 69 6 0 11 7 11 15 0 10
10 15 30 15 20 0 30 5 30 15 0 13 22 15 135 15 82 0 135 -4 135 -10 0 -5 11
-12 25 -16 14 -3 25 -12 25 -20 0 -8 7 -14 15 -14 8 0 15 -7 15 -15 0 -8 7
-15 15 -15 8 0 15 -4 15 -9 0 -5 14 -12 30 -16 17 -4 30 -11 30 -16 0 -5 14
-9 30 -9 17 0 30 5 30 10 0 6 11 10 25 10 14 0 28 7 31 15 4 8 12 15 20 15 8
0 14 6 14 14 0 8 7 16 15 20 11 4 15 22 15 76 0 56 -3 70 -15 70 -10 0 -15 10
-15 30 0 20 -5 30 -15 30 -8 0 -15 7 -15 15 0 8 -7 15 -15 15 -8 0 -15 7 -15
15 0 8 -7 15 -15 15 -8 0 -15 7 -15 15 0 8 -7 15 -15 15 -8 0 -15 7 -15 15 0
9 -9 15 -24 15 -13 0 -26 7 -30 15 -3 8 -16 15 -30 15 -13 0 -26 7 -30 15 -4
10 -20 15 -50 15 -27 0 -46 5 -48 13 -3 8 -33 12 -103 12 -70 0 -100 -4 -102
-12 -3 -8 -24 -13 -59 -13 -41 0 -54 -4 -54 -15 0 -11 -11 -15 -40 -15 -27 0
-43 -5 -46 -15 -4 -9 -19 -15 -35 -15 -19 0 -29 5 -29 15 0 8 -4 15 -10 15 -6
0 -10 50 -10 130 0 109 2 130 15 130 8 0 15 7 15 15 0 8 7 15 15 15 8 0 15 7
15 15 0 8 7 15 15 15 8 0 15 7 15 15 0 8 7 15 15 15 8 0 15 4 15 9 0 5 10 13
22 16 11 4 31 18 43 30 11 13 33 27 48 30 15 4 27 11 27 16 0 5 14 9 30 9 19
0 30 5 30 14 0 9 18 15 57 18 31 3 59 10 61 16 5 15 292 17 292 2z m-710 -560
c0 -5 -4 -10 -10 -10 -5 0 -10 5 -10 10 0 6 5 10 10 10 6 0 10 -4 10 -10z
m-4360 -1375 c0 -11 12 -15 45 -15 33 0 45 -4 45 -15 0 -11 11 -15 39 -15 25
0 41 -5 45 -15 3 -8 17 -15 31 -15 16 0 25 -6 25 -15 0 -8 9 -15 20 -15 11 0
20 -4 20 -10 0 -5 11 -12 25 -16 14 -3 25 -12 25 -20 0 -8 4 -14 10 -14 12 0
110 -98 110 -110 0 -6 7 -10 15 -10 9 0 15 -9 15 -25 0 -16 6 -25 15 -25 8 0
15 -7 15 -15 0 -8 7 -15 15 -15 10 0 15 -10 15 -30 0 -20 5 -30 15 -30 10 0
15 -10 15 -30 0 -16 4 -30 10 -30 5 0 12 -17 16 -37 4 -21 11 -41 16 -44 5 -3
12 -34 15 -68 3 -33 10 -61 14 -61 5 0 9 -52 9 -115 0 -63 -4 -115 -9 -115 -4
0 -11 -30 -14 -67 -4 -38 -11 -69 -17 -71 -5 -2 -10 -17 -10 -33 0 -17 -6 -32
-15 -35 -8 -4 -15 -17 -15 -30 0 -15 -6 -24 -15 -24 -10 0 -15 -10 -15 -30 0
-19 -5 -30 -14 -30 -8 0 -17 -11 -20 -25 -4 -14 -11 -25 -16 -25 -6 0 -10 -9
-10 -20 0 -11 -7 -20 -15 -20 -8 0 -15 -7 -15 -15 0 -8 -7 -15 -15 -15 -8 0
-15 -7 -15 -15 0 -8 -7 -15 -15 -15 -8 0 -15 -7 -15 -15 0 -8 -7 -15 -15 -15
-8 0 -15 -4 -15 -10 0 -5 -7 -10 -15 -10 -8 0 -15 -6 -15 -14 0 -8 -11 -17
-25 -20 -14 -4 -25 -11 -25 -16 0 -6 -7 -10 -15 -10 -9 0 -18 -7 -21 -15 -4
-8 -17 -15 -30 -15 -14 0 -27 -7 -30 -15 -4 -10 -20 -15 -45 -15 -28 0 -39 -4
-39 -15 0 -11 -12 -15 -45 -15 -33 0 -45 -4 -45 -15 0 -13 -26 -15 -175 -15
-149 0 -175 2 -175 15 0 11 -11 15 -41 15 -23 0 -47 7 -55 15 -9 8 -31 15 -50
15 -24 0 -34 5 -34 15 0 9 -9 15 -24 15 -13 0 -26 7 -30 15 -3 8 -17 15 -31
15 -16 0 -25 6 -25 15 0 8 -7 15 -15 15 -8 0 -15 5 -15 10 0 6 -5 10 -11 10
-15 0 -79 65 -79 80 0 5 -7 10 -15 10 -8 0 -15 7 -15 15 0 8 -7 15 -15 15 -8
0 -15 7 -15 15 0 8 -7 15 -15 15 -8 0 -15 6 -15 14 0 8 -7 16 -15 20 -8 3 -15
17 -15 31 0 16 -6 25 -15 25 -9 0 -15 10 -15 26 0 14 -7 32 -15 40 -8 9 -15
28 -15 44 0 16 -7 30 -15 34 -10 4 -15 20 -15 50 0 27 -5 46 -12 49 -17 5 -19
334 -2 345 6 4 14 29 17 57 3 27 10 51 16 53 6 2 11 17 11 33 0 17 6 32 15 35
8 4 15 17 15 30 0 15 6 24 15 24 9 0 15 9 15 25 0 14 7 28 15 31 8 4 15 12 15
20 0 8 7 14 15 14 8 0 15 7 15 15 0 8 7 15 15 15 9 0 15 9 15 25 0 16 6 25 15
25 8 0 15 7 15 15 0 8 7 15 15 15 8 0 23 9 32 20 10 11 22 20 27 20 5 0 19 11
32 25 13 14 32 25 44 25 11 0 20 7 20 15 0 10 10 15 30 15 19 0 30 5 30 14 0
8 16 16 42 19 24 3 44 11 46 16 2 6 24 11 48 11 32 0 44 4 44 15 0 13 26 15
175 15 149 0 175 -2 175 -15z m2490 -2315 c3 -5 18 -12 33 -15 15 -4 27 -11
27 -16 0 -5 6 -9 14 -9 8 0 28 -13 44 -30 17 -16 35 -30 41 -30 6 0 11 -7 11
-15 0 -8 6 -15 14 -15 8 0 17 -13 21 -30 4 -16 11 -30 16 -30 5 0 9 -7 9 -15
0 -8 7 -15 15 -15 10 0 15 -10 15 -30 0 -20 5 -30 15 -30 8 0 15 -7 15 -15 0
-12 -14 -15 -69 -15 -42 0 -71 -4 -73 -11 -5 -15 -486 -18 -496 -2 -4 6 -44
14 -89 18 -46 4 -83 11 -83 16 0 5 -14 9 -30 9 -18 0 -33 6 -36 15 -4 8 -18
15 -34 15 -16 0 -35 7 -44 15 -8 8 -23 15 -33 15 -29 0 -63 12 -63 21 0 5 7 9
15 9 8 0 15 7 15 15 0 11 12 15 45 15 33 0 45 4 45 15 0 11 11 15 40 15 29 0
40 4 40 15 0 10 10 15 29 15 16 0 31 6 35 15 3 8 17 15 31 15 14 0 25 4 25 9
0 5 14 12 30 16 17 4 30 10 30 15 0 4 20 11 45 14 25 4 45 11 45 16 0 19 278
19 290 0z m3689 1 c4 -5 19 -13 34 -16 15 -4 27 -11 27 -16 0 -5 14 -9 30 -9
20 0 30 -5 30 -15 0 -10 10 -15 29 -15 16 0 36 -6 43 -13 7 -8 26 -17 41 -21
15 -3 27 -11 27 -16 0 -6 14 -10 30 -10 20 0 30 -5 30 -15 0 -11 12 -15 50
-15 38 0 50 -4 50 -15 0 -10 -10 -15 -29 -15 -16 0 -31 -6 -35 -15 -3 -10 -19
-15 -45 -15 -22 0 -41 -5 -43 -11 -2 -6 -28 -14 -58 -17 -30 -2 -57 -8 -60
-13 -3 -4 -37 -11 -75 -15 -39 -4 -73 -11 -76 -17 -4 -5 -108 -11 -238 -15
-127 -3 -231 -9 -231 -13 0 -5 -31 -9 -70 -9 l-70 0 0 30 c0 17 4 30 10 30 5
0 12 11 16 25 3 14 10 25 14 25 5 0 11 14 15 30 4 17 13 30 21 30 8 0 14 5 14
11 0 7 11 22 25 35 14 13 25 28 25 34 0 5 5 10 10 10 6 0 21 11 34 25 13 14
30 25 39 25 9 0 22 6 30 14 8 8 34 17 58 19 69 8 292 -2 298 -12z m-1989 -26
c0 -8 7 -15 15 -15 10 0 15 -10 15 -30 0 -20 5 -30 15 -30 8 0 15 -7 15 -15 0
-8 7 -15 15 -15 8 0 15 -7 15 -15 0 -8 5 -15 10 -15 6 0 10 -7 10 -15 0 -8 7
-15 15 -15 8 0 15 -6 15 -14 0 -16 116 -136 131 -136 6 0 20 -11 33 -25 13
-14 29 -25 35 -25 6 0 14 -7 17 -15 4 -8 17 -15 30 -15 15 0 24 -6 24 -15 0
-10 10 -15 30 -15 19 0 30 -5 30 -14 0 -8 11 -17 25 -20 54 -14 20 -24 -85
-28 -69 -2 -113 -7 -118 -14 -5 -8 -62 -13 -171 -15 -120 -3 -165 -7 -169 -16
-3 -10 -48 -13 -183 -13 -152 0 -179 -2 -179 -15 0 -13 -28 -15 -189 -15 -190
0 -236 5 -209 21 7 5 25 9 39 9 15 0 29 7 33 15 3 10 19 15 45 15 25 0 41 5
45 15 3 10 19 15 46 15 29 0 40 4 40 15 0 10 10 15 30 15 20 0 30 5 30 15 0
10 10 15 30 15 20 0 30 5 30 15 0 8 7 15 15 15 8 0 15 4 15 9 0 5 12 12 27 16
15 3 37 17 50 31 12 13 27 24 33 24 5 0 10 7 10 15 0 8 7 15 15 15 8 0 15 7
15 15 0 8 7 15 15 15 8 0 15 7 15 15 0 8 7 15 15 15 8 0 15 7 15 15 0 8 7 15
15 15 8 0 15 5 15 10 0 6 11 21 25 34 14 13 25 28 25 35 0 6 6 11 14 11 8 0
17 11 20 25 4 14 11 25 16 25 6 0 10 9 10 20 0 11 7 20 15 20 8 0 15 7 15 15
0 8 7 15 15 15 8 0 15 -7 15 -15z m4862 -132 c2 -106 6 -148 16 -151 9 -3 12
-79 12 -337 0 -258 -3 -334 -12 -337 -10 -4 -14 -47 -16 -159 -3 -120 -7 -156
-18 -162 -10 -6 -14 -30 -14 -92 0 -57 -4 -85 -12 -87 -8 -3 -14 -33 -16 -84
-3 -53 -9 -82 -18 -87 -9 -5 -14 -27 -14 -62 0 -30 -4 -55 -9 -55 -5 0 -12
-27 -16 -60 -4 -33 -11 -60 -15 -60 -4 0 -11 -25 -15 -55 -3 -30 -10 -55 -14
-55 -5 0 -11 -22 -15 -50 -4 -27 -11 -50 -16 -50 -6 0 -10 -13 -10 -29 0 -16
-7 -36 -15 -45 -8 -8 -15 -32 -15 -55 0 -30 -4 -41 -15 -41 -11 0 -15 -12 -15
-45 0 -33 -4 -45 -15 -45 -11 0 -15 -11 -15 -40 0 -29 -4 -40 -15 -40 -10 0
-15 -11 -15 -35 0 -24 -5 -35 -15 -35 -11 0 -15 -11 -15 -40 0 -29 -4 -40 -15
-40 -11 0 -15 -12 -15 -45 0 -33 -4 -45 -15 -45 -10 0 -15 -10 -15 -30 0 -20
-5 -30 -15 -30 -10 0 -15 -10 -15 -30 0 -16 -4 -30 -10 -30 -5 0 -13 -12 -16
-27 -4 -15 -13 -34 -21 -41 -7 -7 -13 -20 -13 -28 0 -8 -4 -14 -9 -14 -5 0
-12 -13 -16 -30 -4 -16 -10 -30 -15 -30 -5 0 -11 -13 -15 -30 -4 -16 -10 -30
-15 -30 -5 0 -11 -13 -15 -30 -4 -16 -10 -30 -15 -30 -5 0 -11 -13 -15 -30 -4
-16 -10 -30 -15 -30 -4 0 -11 -11 -14 -25 -4 -14 -11 -25 -16 -25 -6 0 -10 -7
-10 -15 0 -9 -7 -18 -15 -21 -8 -4 -15 -17 -15 -30 0 -15 -6 -24 -15 -24 -8 0
-15 -9 -15 -20 0 -11 -4 -20 -10 -20 -5 0 -12 -11 -16 -25 -3 -14 -12 -25 -20
-25 -9 0 -14 -11 -14 -30 0 -20 -5 -30 -15 -30 -8 0 -15 -7 -15 -15 0 -8 -7
-15 -15 -15 -8 0 -15 -7 -15 -15 0 -8 -4 -15 -9 -15 -5 0 -12 -13 -16 -30 -4
-16 -13 -30 -21 -30 -8 0 -14 -7 -14 -15 0 -8 -4 -15 -9 -15 -5 0 -13 -10 -16
-22 -4 -11 -17 -31 -29 -42 -13 -12 -25 -29 -29 -38 -3 -10 -11 -18 -16 -18
-5 0 -13 -9 -16 -21 -7 -20 -39 -59 -50 -59 -3 0 -5 38 -5 85 0 69 -3 85 -15
85 -13 0 -15 41 -15 310 0 269 2 310 15 310 13 0 15 21 15 130 0 109 -2 130
-15 130 -12 0 -15 18 -15 101 0 76 -4 104 -15 115 -9 9 -15 34 -15 59 0 29 -5
45 -15 49 -8 3 -15 17 -15 31 0 14 -4 25 -9 25 -5 0 -12 14 -16 30 -4 17 -10
30 -15 30 -5 0 -11 14 -15 30 -4 17 -13 30 -21 30 -8 0 -14 7 -14 15 0 8 -4
15 -10 15 -5 0 -10 7 -10 15 0 8 -7 15 -15 15 -8 0 -15 7 -15 15 0 8 -7 15
-15 15 -8 0 -15 7 -15 15 0 8 -7 15 -15 15 -8 0 -15 7 -15 15 0 8 -7 15 -15
15 -8 0 -15 7 -15 15 0 8 -9 15 -20 15 -11 0 -20 4 -20 10 0 5 -11 12 -25 16
-14 3 -25 10 -25 14 0 5 -13 11 -30 15 -16 4 -30 10 -30 15 0 5 -13 11 -30 15
-16 4 -30 10 -30 15 0 5 -31 12 -70 16 -38 3 -70 10 -70 14 0 4 -46 10 -102
14 -57 4 -105 11 -108 15 -3 5 -126 10 -274 13 -193 3 -271 8 -274 16 -2 8
-35 12 -97 12 -70 0 -97 4 -109 15 -9 10 -34 15 -70 15 -43 0 -56 3 -56 15 0
11 -12 15 -45 15 -33 0 -45 4 -45 15 0 10 -10 15 -30 15 -20 0 -30 5 -30 15 0
10 -10 15 -30 15 -20 0 -30 5 -30 15 0 9 -9 15 -25 15 -16 0 -25 6 -25 15 0 8
-7 15 -15 15 -8 0 -15 5 -15 10 0 6 -7 10 -15 10 -8 0 -15 6 -15 14 0 8 -13
17 -30 21 -23 5 -30 12 -30 31 0 15 -6 24 -15 24 -8 0 -15 6 -15 14 0 8 -7 16
-15 20 -8 3 -15 12 -15 21 0 8 -4 15 -10 15 -5 0 -12 11 -16 25 -3 14 -10 25
-15 25 -5 0 -9 14 -9 30 0 19 -5 30 -14 30 -9 0 -15 18 -18 57 -3 31 -10 59
-16 61 -16 5 -17 199 -1 204 5 2 13 22 16 46 3 23 9 42 14 42 4 0 10 14 14 30
4 17 11 30 16 30 5 0 12 18 15 40 4 22 10 40 14 40 5 0 11 14 15 30 4 17 11
30 16 30 5 0 9 9 9 19 0 11 7 26 15 35 8 8 15 19 15 24 0 5 32 12 72 14 44 2
73 9 76 16 2 8 34 12 103 12 81 0 99 3 99 15 0 12 18 15 105 15 87 0 105 3
105 15 0 12 18 15 100 15 82 0 100 3 100 15 0 12 19 15 114 15 92 0 115 3 120
15 4 11 23 15 80 15 43 0 76 4 78 11 2 5 39 13 83 16 44 3 82 10 85 14 3 5 38
11 78 15 40 4 72 10 72 14 0 4 32 11 70 14 39 4 70 11 70 15 0 5 32 11 71 13
39 3 74 10 78 16 3 5 37 11 74 14 38 2 71 9 75 15 4 6 36 12 71 15 37 3 67 10
69 16 2 7 26 12 63 12 46 0 59 3 59 15 0 12 13 15 60 15 47 0 60 3 60 15 0 12
13 15 55 15 40 0 57 4 61 15 5 11 21 15 60 15 41 0 54 4 54 15 0 12 13 15 55
15 42 0 55 3 55 15 0 11 12 15 44 15 30 0 46 5 50 15 3 10 19 15 45 15 25 0
41 5 45 15 3 10 19 15 45 15 22 0 41 5 43 10 2 6 21 13 43 17 22 3 43 10 46
15 3 5 25 12 48 15 22 3 41 9 41 14 0 5 18 12 40 15 22 4 40 10 40 15 0 4 10
10 23 12 12 2 25 5 29 6 3 0 8 -65 10 -146z m-3632 -648 c0 -16 -6 -25 -15
-25 -10 0 -15 -10 -15 -30 0 -20 -5 -30 -15 -30 -11 0 -15 -12 -15 -45 0 -33
-4 -45 -15 -45 -13 0 -15 -28 -15 -190 0 -162 2 -190 15 -190 11 0 15 -12 15
-45 0 -33 4 -45 15 -45 11 0 15 -12 15 -45 0 -33 4 -45 15 -45 10 0 15 -10 15
-30 0 -20 5 -30 15 -30 10 0 15 -10 15 -30 0 -20 5 -30 15 -30 9 0 15 -9 15
-25 0 -16 6 -25 15 -25 8 0 15 -7 15 -15 0 -8 5 -15 10 -15 6 0 10 -6 10 -13
0 -7 9 -20 20 -30 11 -9 20 -24 20 -32 0 -8 4 -15 10 -15 15 0 50 -33 50 -47
0 -7 7 -13 15 -13 8 0 15 -4 15 -10 0 -5 11 -12 25 -16 14 -3 25 -12 25 -20 0
-8 7 -14 15 -14 8 0 15 -7 15 -15 0 -8 9 -15 20 -15 11 0 20 -4 20 -10 0 -5
11 -12 25 -16 14 -3 25 -12 25 -20 0 -8 10 -14 24 -14 13 0 26 -7 30 -15 3 -8
16 -15 30 -15 13 0 26 -7 30 -15 3 -8 17 -15 31 -15 14 0 25 -4 25 -10 0 -5
16 -12 35 -16 19 -3 35 -10 35 -14 0 -4 23 -10 51 -12 28 -3 54 -10 58 -15 3
-6 37 -12 74 -15 38 -2 71 -9 75 -15 4 -6 78 -12 192 -15 123 -4 185 -9 188
-17 3 -8 62 -11 193 -11 161 0 189 -2 189 -15 0 -12 18 -15 100 -15 82 0 100
-3 100 -15 0 -11 12 -15 45 -15 33 0 45 -4 45 -15 0 -8 6 -15 14 -15 8 0 16
-7 20 -15 3 -8 17 -15 31 -15 16 0 25 -6 25 -15 0 -8 7 -15 15 -15 8 0 15 -5
15 -11 0 -6 7 -17 15 -25 8 -9 15 -24 15 -35 0 -10 7 -19 15 -19 9 0 15 -10
15 -26 0 -14 7 -32 15 -40 9 -9 15 -34 15 -59 0 -26 5 -45 13 -47 18 -7 17
-365 -1 -377 -18 -11 -20 -600 -2 -611 6 -4 14 -46 17 -98 3 -51 9 -92 13 -92
4 0 10 -37 13 -82 4 -45 11 -84 16 -88 6 -3 11 -33 13 -66 2 -55 -1 -64 -25
-86 -15 -14 -27 -30 -27 -37 0 -6 -7 -11 -15 -11 -8 0 -15 -6 -15 -13 0 -14
-35 -47 -50 -47 -6 0 -10 -7 -10 -15 0 -8 -7 -15 -15 -15 -8 0 -15 -7 -15 -15
0 -8 -7 -15 -15 -15 -8 0 -15 -7 -15 -15 0 -8 -7 -15 -15 -15 -8 0 -15 -7 -15
-15 0 -8 -7 -15 -15 -15 -8 0 -15 -7 -15 -15 0 -8 -7 -15 -15 -15 -8 0 -15 -7
-15 -15 0 -8 -5 -15 -11 -15 -7 0 -22 -11 -35 -25 -13 -14 -28 -25 -34 -25 -5
0 -10 -6 -10 -14 0 -8 -11 -17 -25 -20 -14 -4 -25 -11 -25 -16 0 -6 -7 -10
-15 -10 -8 0 -15 -7 -15 -15 0 -8 -7 -15 -15 -15 -8 0 -15 -7 -15 -15 0 -8 -7
-15 -15 -15 -9 0 -18 -7 -21 -15 -4 -8 -17 -15 -30 -15 -15 0 -24 -6 -24 -15
0 -8 -7 -15 -15 -15 -8 0 -15 -7 -15 -15 0 -8 -7 -15 -15 -15 -8 0 -15 -7 -15
-15 0 -10 -10 -15 -30 -15 -20 0 -30 -5 -30 -15 0 -8 -7 -15 -15 -15 -8 0 -15
-7 -15 -15 0 -9 -9 -15 -24 -15 -13 0 -26 -7 -30 -15 -3 -8 -12 -15 -21 -15
-8 0 -15 -4 -15 -9 0 -5 -10 -13 -22 -16 -11 -4 -31 -18 -43 -31 -13 -14 -34
-24 -49 -24 -16 0 -26 -6 -26 -14 0 -8 -13 -17 -30 -21 -16 -4 -30 -11 -30
-16 0 -5 -7 -9 -15 -9 -8 0 -15 -7 -15 -15 0 -10 -10 -15 -30 -15 -19 0 -30
-5 -30 -14 0 -8 -11 -17 -25 -20 -14 -4 -25 -11 -25 -16 0 -6 -9 -10 -20 -10
-11 0 -20 -7 -20 -15 0 -10 -10 -15 -30 -15 -20 0 -30 -5 -30 -15 0 -10 -10
-15 -30 -15 -20 0 -30 -5 -30 -15 0 -9 -9 -15 -25 -15 -16 0 -25 -6 -25 -15 0
-10 -10 -15 -30 -15 -16 0 -30 -4 -30 -9 0 -5 -13 -12 -30 -16 -16 -4 -30 -11
-30 -16 0 -5 -18 -12 -39 -15 -22 -4 -42 -13 -45 -20 -3 -8 -16 -14 -30 -14
-13 0 -26 -5 -28 -11 -2 -5 -22 -13 -46 -16 -23 -3 -42 -9 -42 -14 0 -4 -13
-10 -30 -14 -16 -4 -30 -11 -30 -16 0 -5 -13 -9 -30 -9 -20 0 -30 -5 -30 -15
0 -11 -12 -15 -44 -15 -26 0 -51 -6 -60 -15 -8 -8 -28 -15 -45 -15 -16 0 -36
-7 -45 -15 -8 -8 -32 -15 -55 -15 -30 0 -41 -4 -41 -15 0 -11 -12 -15 -45 -15
-33 0 -45 -4 -45 -15 0 -12 -13 -15 -60 -15 -47 0 -60 -3 -60 -15 0 -12 -13
-15 -60 -15 -47 0 -60 -3 -60 -15 0 -11 -11 -15 -40 -15 -29 0 -40 4 -40 15 0
8 7 15 15 15 13 0 15 43 15 324 0 275 -2 327 -15 340 -11 11 -15 39 -15 115 0
83 -3 101 -15 101 -12 0 -15 14 -15 70 0 56 -3 70 -15 70 -12 0 -15 13 -15 60
0 47 -3 60 -15 60 -11 0 -15 12 -15 45 0 33 -4 45 -15 45 -11 0 -15 11 -15 41
0 23 -7 47 -15 55 -8 9 -15 28 -15 44 0 16 -7 30 -15 34 -8 3 -15 17 -15 31 0
15 -7 33 -15 41 -8 9 -15 24 -15 35 0 10 -4 19 -10 19 -5 0 -10 11 -10 25 0
15 -6 25 -14 25 -8 0 -17 14 -21 30 -4 17 -10 30 -15 30 -4 0 -11 11 -14 25
-4 14 -11 25 -16 25 -6 0 -10 9 -10 20 0 11 -7 20 -15 20 -8 0 -15 7 -15 15 0
8 -6 15 -14 15 -8 0 -17 11 -20 25 -4 14 -11 25 -16 25 -6 0 -10 7 -10 15 0 8
-7 15 -15 15 -8 0 -15 7 -15 15 0 8 -7 15 -15 15 -8 0 -15 6 -15 14 0 8 -11
17 -25 20 -14 4 -25 11 -25 16 0 6 -7 10 -15 10 -9 0 -18 6 -21 14 -3 8 -19
18 -35 21 -16 4 -29 11 -29 16 0 5 -13 9 -29 9 -16 0 -36 7 -45 15 -11 11 -37
15 -99 15 -66 0 -86 3 -91 15 -3 8 -17 15 -31 15 -16 0 -25 -6 -25 -15 0 -12
-18 -15 -99 -15 -79 0 -100 -3 -105 -15 -3 -10 -19 -15 -46 -15 -24 0 -48 -7
-56 -15 -9 -8 -28 -15 -44 -15 -16 0 -30 -5 -32 -11 -2 -5 -22 -13 -46 -16
-23 -3 -42 -9 -42 -14 0 -5 -18 -12 -40 -15 -22 -4 -40 -10 -40 -14 0 -4 -16
-11 -35 -14 -19 -4 -35 -11 -35 -15 0 -5 -18 -11 -40 -15 -22 -3 -40 -11 -40
-16 0 -6 -13 -10 -30 -10 -19 0 -30 -5 -30 -14 0 -8 -16 -16 -42 -19 -24 -3
-44 -11 -46 -16 -2 -6 -24 -11 -48 -11 -31 0 -44 -4 -44 -14 0 -16 -166 -24
-390 -17 -103 2 -130 6 -130 17 0 10 -15 14 -60 14 -47 0 -60 3 -60 15 0 12
-13 15 -60 15 -47 0 -60 3 -60 15 0 11 -11 15 -39 15 -25 0 -41 5 -45 15 -3
10 -19 15 -45 15 -25 0 -41 5 -45 15 -3 8 -17 15 -31 15 -14 0 -25 4 -25 9 0
5 -13 12 -30 16 -16 4 -30 11 -30 16 0 5 -9 9 -19 9 -11 0 -26 7 -35 15 -8 8
-26 15 -40 15 -16 0 -26 6 -26 14 0 8 -11 17 -25 20 -14 4 -25 11 -25 16 0 6
-9 10 -20 10 -11 0 -20 7 -20 15 0 10 -10 15 -30 15 -20 0 -30 5 -30 15 0 9
-9 15 -25 15 -16 0 -25 6 -25 15 0 8 -7 15 -15 15 -8 0 -15 7 -15 15 0 8 -9
15 -20 15 -11 0 -20 4 -20 10 0 5 -11 12 -25 16 -14 3 -25 12 -25 20 0 8 -7
14 -15 14 -8 0 -15 7 -15 15 0 8 -7 15 -15 15 -8 0 -15 7 -15 15 0 8 -7 15
-15 15 -8 0 -15 5 -15 11 0 13 -20 33 -42 42 -10 3 -18 13 -18 22 0 8 -4 15
-10 15 -5 0 -12 11 -16 25 -3 14 -10 25 -14 25 -5 0 -11 14 -15 30 -4 17 -11
30 -16 30 -5 0 -9 34 -9 75 0 41 4 75 9 75 5 0 12 14 16 30 4 17 11 30 16 30
5 0 9 11 9 25 0 16 6 25 15 25 8 0 15 9 15 19 0 11 7 26 15 34 7 8 17 26 21
41 3 14 10 26 15 26 5 0 9 7 9 15 0 8 7 15 15 15 9 0 15 9 15 25 0 16 6 25 15
25 8 0 15 9 15 20 0 11 7 20 15 20 9 0 15 9 15 25 0 16 6 25 15 25 8 0 15 9
15 20 0 11 7 20 15 20 9 0 15 9 15 25 0 16 6 25 15 25 8 0 15 7 15 15 0 8 5
15 10 15 6 0 10 6 10 13 0 14 35 47 50 47 6 0 10 7 10 15 0 8 7 15 15 15 8 0
15 7 15 15 0 8 7 15 15 15 8 0 15 7 15 15 0 8 7 15 15 15 8 0 15 7 15 15 0 8
7 15 15 15 9 0 15 9 15 25 0 14 6 28 14 31 8 3 17 16 20 30 4 13 11 24 16 24
6 0 10 9 10 20 0 11 7 20 15 20 12 0 15 14 15 70 0 56 3 70 15 70 12 0 15 15
15 75 0 60 -3 75 -15 75 -11 0 -15 12 -15 45 0 33 -4 45 -15 45 -10 0 -15 10
-15 30 0 17 -4 30 -10 30 -5 0 -13 12 -16 27 -4 15 -13 34 -21 41 -7 7 -13 22
-13 33 0 10 -4 19 -10 19 -5 0 -12 11 -16 25 -3 14 -10 25 -14 25 -5 0 -11 14
-15 30 -4 17 -10 30 -15 30 -5 0 -11 14 -15 30 -4 17 -10 30 -15 30 -5 0 -11
14 -15 30 -4 17 -10 30 -15 30 -5 0 -11 14 -15 30 -4 17 -11 30 -16 30 -5 0
-9 11 -9 25 0 14 -7 28 -15 31 -29 11 -15 21 36 26 28 3 54 10 58 16 4 6 67
12 165 14 116 2 160 6 164 16 3 9 40 12 143 12 115 0 141 3 145 15 5 12 32 15
154 15 119 0 152 3 164 15 11 12 43 15 154 15 115 0 141 3 146 15 4 13 33 15
175 15 127 0 170 3 173 13 3 8 44 13 144 16 81 2 142 7 145 13 4 6 68 13 153
16 80 3 146 8 146 12 0 5 68 11 150 15 83 4 150 11 150 15 0 4 75 10 167 14
92 4 170 11 173 15 3 5 56 11 119 13 62 3 116 10 120 16 3 5 68 11 145 14 98
2 141 7 144 16 2 8 25 12 63 12 56 0 59 -1 59 -25z m-4750 -455 c0 -11 7 -20
15 -20 11 0 15 -11 15 -40 0 -28 4 -40 14 -40 8 0 17 -13 21 -30 4 -16 11 -30
16 -30 5 0 9 -13 9 -30 0 -20 5 -30 15 -30 10 0 15 -10 15 -30 0 -20 5 -30 15
-30 10 0 15 -10 15 -30 0 -20 5 -30 15 -30 10 0 15 -10 15 -30 0 -16 4 -30 10
-30 5 0 13 -12 16 -27 4 -15 13 -34 21 -41 7 -7 13 -20 13 -28 0 -9 7 -22 15
-30 8 -9 15 -26 15 -39 0 -12 7 -25 15 -29 8 -3 15 -17 15 -31 0 -14 4 -25 9
-25 5 0 12 -13 16 -30 4 -16 11 -30 16 -30 5 0 9 -9 9 -19 0 -11 6 -26 13 -33
8 -7 17 -26 21 -41 3 -15 11 -27 16 -27 6 0 10 -13 10 -30 0 -20 5 -30 15 -30
10 0 15 -10 15 -30 0 -19 5 -30 14 -30 8 0 17 -11 20 -25 4 -14 11 -25 16 -25
6 0 10 -9 10 -20 0 -11 7 -20 15 -20 8 0 15 -7 15 -15 0 -10 10 -15 30 -15 20
0 30 -5 30 -15 0 -10 10 -15 30 -15 20 0 30 -5 30 -15 0 -12 13 -15 60 -15
l60 0 -6 -27 c-4 -16 -10 -30 -14 -33 -4 -3 -10 -15 -14 -27 -4 -13 -12 -23
-17 -23 -5 0 -9 -7 -9 -15 0 -9 -7 -18 -15 -21 -8 -4 -15 -17 -15 -30 0 -15
-6 -24 -15 -24 -8 0 -15 -7 -15 -15 0 -8 -7 -15 -15 -15 -10 0 -15 -10 -15
-30 0 -20 -5 -30 -15 -30 -10 0 -15 -10 -15 -30 0 -20 -5 -30 -15 -30 -11 0
-15 -11 -15 -39 0 -25 -5 -41 -15 -45 -12 -4 -15 -31 -15 -151 0 -122 2 -145
15 -145 11 0 15 -12 15 -45 0 -33 4 -45 15 -45 10 0 15 -10 15 -30 0 -20 5
-30 15 -30 9 0 15 -9 15 -24 0 -13 7 -26 15 -30 8 -3 15 -12 15 -21 0 -8 4
-15 10 -15 5 0 12 -11 16 -25 3 -14 12 -25 20 -25 8 0 14 -5 14 -10 0 -6 11
-21 25 -34 14 -13 25 -28 25 -35 0 -6 7 -11 15 -11 8 0 15 -7 15 -15 0 -8 7
-15 15 -15 8 0 15 -7 15 -15 0 -8 7 -15 15 -15 8 0 15 -5 15 -10 0 -6 8 -14
18 -17 9 -4 30 -19 45 -35 16 -15 35 -28 43 -28 8 0 14 -7 14 -15 0 -8 7 -15
15 -15 8 0 15 -4 15 -9 0 -5 14 -12 30 -16 17 -4 30 -13 30 -21 0 -8 7 -14 15
-14 8 0 15 -4 15 -9 0 -5 11 -12 25 -15 14 -4 25 -10 25 -15 0 -5 14 -12 30
-16 17 -4 30 -10 30 -15 0 -5 14 -11 30 -15 17 -4 30 -11 30 -16 0 -5 7 -9 15
-9 8 0 15 -7 15 -15 0 -10 10 -15 30 -15 20 0 30 -5 30 -15 0 -10 10 -15 30
-15 20 0 30 -5 30 -15 0 -10 10 -15 30 -15 20 0 30 -5 30 -15 0 -11 11 -15 40
-15 29 0 40 -4 40 -15 0 -10 10 -15 31 -15 17 0 37 -7 45 -15 9 -8 29 -15 45
-15 19 0 29 -5 29 -15 0 -11 12 -15 44 -15 24 0 46 -5 48 -11 2 -6 26 -13 53
-16 28 -3 54 -12 58 -19 5 -9 28 -14 67 -14 38 0 60 -4 62 -12 7 -20 520 -25
539 -5 8 8 39 16 69 19 30 3 56 11 58 17 2 6 24 11 48 11 32 0 44 4 44 15 0
11 11 15 40 15 27 0 43 5 46 15 4 9 19 15 35 15 19 0 29 5 29 15 0 11 11 15
40 15 29 0 40 4 40 15 0 10 10 15 30 15 18 0 33 6 36 15 4 10 20 15 45 15 28
0 39 4 39 15 0 11 12 15 45 15 33 0 45 4 45 15 0 11 11 15 41 15 23 0 47 7 55
15 10 10 35 15 75 15 33 0 59 4 59 10 0 6 32 10 75 10 43 0 75 -4 75 -10 0 -5
14 -10 30 -10 20 0 30 -5 30 -15 0 -9 9 -15 25 -15 16 0 25 -6 25 -15 0 -8 5
-15 10 -15 6 0 19 -9 30 -20 11 -11 20 -24 20 -30 0 -5 7 -10 15 -10 8 0 15
-7 15 -15 0 -8 7 -15 15 -15 9 0 15 -9 15 -25 0 -14 7 -28 15 -31 8 -4 15 -12
15 -20 0 -8 7 -14 15 -14 10 0 15 -10 15 -30 0 -16 4 -30 10 -30 5 0 13 -12
16 -27 4 -15 13 -34 21 -41 7 -7 13 -26 13 -42 0 -16 5 -30 11 -32 5 -2 13
-22 16 -46 3 -23 9 -42 13 -42 5 0 11 -27 15 -60 4 -33 11 -60 15 -60 4 0 11
-25 15 -55 3 -30 10 -55 14 -55 5 0 11 -39 14 -87 4 -51 11 -89 18 -94 18 -11
17 -718 0 -729 -7 -4 -15 -26 -18 -49 l-6 -41 -52 0 c-34 0 -55 -5 -57 -12 -4
-10 -65 -14 -251 -16 -142 -2 -247 -7 -247 -13 0 -5 -7 -9 -15 -9 -8 0 -15 4
-15 9 0 6 -95 11 -232 13 -174 2 -232 6 -236 16 -2 8 -33 12 -107 12 -79 0
-107 4 -119 15 -11 11 -37 15 -100 15 -70 0 -86 3 -86 15 0 12 -14 15 -70 15
-56 0 -70 3 -70 15 0 12 -13 15 -61 15 -40 0 -65 5 -75 15 -9 9 -34 15 -60 15
-32 0 -44 4 -44 15 0 11 -11 15 -41 15 -23 0 -47 7 -55 15 -9 9 -34 15 -59 15
-29 0 -45 5 -49 15 -3 10 -19 15 -46 15 -29 0 -40 4 -40 15 0 11 -11 15 -41
15 -23 0 -47 7 -55 15 -9 8 -28 15 -44 15 -16 0 -30 7 -34 15 -3 9 -18 15 -36
15 -16 0 -30 4 -30 9 0 5 -13 12 -30 16 -16 4 -30 10 -30 15 0 4 -18 10 -40
14 -22 3 -40 11 -40 16 0 6 -13 10 -30 10 -20 0 -30 5 -30 15 0 10 -10 15 -30
15 -20 0 -30 5 -30 15 0 10 -10 15 -30 15 -20 0 -30 5 -30 15 0 9 -9 15 -24
15 -13 0 -26 7 -30 15 -3 8 -17 15 -31 15 -16 0 -25 6 -25 15 0 10 -10 15 -30
15 -20 0 -30 5 -30 15 0 8 -9 15 -20 15 -11 0 -20 4 -20 10 0 5 -11 12 -25 16
-14 3 -25 10 -25 14 0 5 -13 11 -30 15 -16 4 -30 13 -30 21 0 8 -7 14 -15 14
-8 0 -15 4 -15 9 0 5 -13 12 -30 16 -16 4 -30 11 -30 16 0 5 -11 11 -25 15
-14 3 -25 10 -25 15 0 5 -7 9 -15 9 -9 0 -18 6 -21 14 -3 8 -16 17 -30 20 -13
4 -24 11 -24 16 0 6 -7 10 -15 10 -9 0 -18 7 -21 15 -4 8 -17 15 -30 15 -15 0
-24 6 -24 15 0 8 -7 15 -15 15 -8 0 -15 7 -15 15 0 8 -7 15 -15 15 -8 0 -15 7
-15 15 0 10 -10 15 -30 15 -20 0 -30 5 -30 15 0 8 -7 15 -15 15 -8 0 -15 7
-15 15 0 8 -7 15 -15 15 -8 0 -15 7 -15 15 0 8 -7 15 -15 15 -8 0 -15 4 -15 9
0 5 -10 13 -22 17 -12 4 -33 20 -47 35 -14 16 -31 29 -38 29 -7 0 -13 4 -13
10 0 5 -11 12 -25 16 -14 3 -25 12 -25 20 0 8 -5 14 -10 14 -6 0 -21 11 -34
25 -13 14 -28 25 -35 25 -6 0 -11 7 -11 15 0 8 -7 15 -15 15 -8 0 -15 7 -15
15 0 8 -7 15 -15 15 -8 0 -15 7 -15 15 0 8 -7 15 -15 15 -8 0 -15 7 -15 15 0
8 -7 15 -15 15 -8 0 -15 7 -15 15 0 8 -7 15 -15 15 -8 0 -15 7 -15 15 0 8 -7
15 -15 15 -8 0 -15 7 -15 15 0 8 -5 15 -11 15 -12 0 -39 25 -39 37 0 11 -37
43 -50 43 -6 0 -10 6 -10 13 0 14 -35 47 -50 47 -6 0 -10 6 -10 13 0 7 -13 24
-29 38 -15 14 -31 35 -35 47 -4 12 -12 22 -17 22 -5 0 -9 7 -9 15 0 8 -7 15
-15 15 -8 0 -15 7 -15 15 0 8 -7 15 -15 15 -8 0 -15 7 -15 15 0 8 -4 15 -10
15 -5 0 -12 11 -16 24 -3 14 -12 27 -20 30 -8 3 -14 12 -14 21 0 8 -7 15 -15
15 -8 0 -15 7 -15 15 0 8 -4 15 -10 15 -5 0 -10 7 -10 15 0 8 -6 15 -14 15 -8
0 -17 11 -20 25 -4 14 -11 25 -16 25 -6 0 -10 7 -10 15 0 9 -6 18 -14 21 -8 3
-17 16 -20 30 -4 13 -11 24 -16 24 -6 0 -10 7 -10 15 0 8 -7 15 -15 15 -8 0
-15 7 -15 15 0 8 -7 15 -15 15 -10 0 -15 10 -15 30 0 20 -5 30 -15 30 -8 0
-15 7 -15 15 0 8 -7 15 -15 15 -10 0 -15 10 -15 30 0 20 -5 30 -15 30 -9 0
-15 9 -15 25 0 16 -6 25 -15 25 -8 0 -15 9 -15 20 0 11 -4 20 -10 20 -5 0 -12
11 -16 25 -3 14 -10 25 -14 25 -5 0 -11 13 -15 29 -3 16 -13 32 -21 35 -8 3
-14 17 -14 31 0 14 -4 25 -10 25 -5 0 -10 7 -10 15 0 8 -7 15 -15 15 -10 0
-15 10 -15 30 0 20 -5 30 -15 30 -9 0 -15 9 -15 25 0 14 -7 28 -15 31 -8 4
-15 17 -15 30 0 14 -7 27 -15 30 -8 4 -15 17 -15 30 0 14 -7 27 -15 30 -9 4
-15 19 -15 35 0 19 -5 29 -15 29 -10 0 -15 10 -15 29 0 16 -7 36 -15 45 -8 8
-15 26 -15 40 0 16 -6 26 -15 26 -10 0 -15 10 -15 30 0 20 -5 30 -15 30 -11 0
-15 12 -15 45 0 33 -4 45 -15 45 -11 0 -15 11 -15 39 0 25 -5 41 -15 45 -9 3
-15 18 -15 36 0 16 -4 30 -9 30 -5 0 -11 18 -15 40 -3 22 -10 40 -15 40 -5 0
-12 27 -16 60 -4 33 -10 60 -15 60 -4 0 -10 19 -13 41 -3 23 -10 45 -15 48 -5
3 -12 31 -14 61 -3 30 -11 56 -17 58 -6 2 -11 27 -11 58 0 39 -4 54 -14 54
-10 0 -15 19 -18 72 -2 44 -9 73 -16 76 -8 2 -12 28 -12 73 0 53 -4 71 -15 75
-12 5 -15 24 -15 84 0 93 -11 88 174 89 72 1 132 5 135 10 4 5 93 12 199 16
105 4 192 11 192 15 0 4 84 10 187 13 110 3 189 10 192 16 4 6 57 12 121 14
63 1 121 4 128 5 6 1 12 -7 12 -18z"/>
<path d="M12070 19675 c0 -8 -6 -15 -14 -15 -22 0 -46 -29 -46 -55 0 -12 -7
-25 -15 -29 -10 -4 -15 -20 -15 -50 0 -26 6 -51 15 -60 8 -8 15 -26 15 -40 0
-16 6 -26 15 -26 8 0 15 -9 15 -20 0 -11 7 -20 15 -20 8 0 15 -7 15 -15 0 -8
7 -15 15 -15 8 0 15 -5 15 -11 0 -14 50 -63 73 -72 9 -3 17 -11 17 -17 0 -5 7
-10 15 -10 8 0 15 -7 15 -15 0 -10 10 -15 29 -15 16 0 36 -7 45 -15 8 -8 26
-15 39 -15 14 0 27 -7 31 -15 4 -11 21 -15 60 -15 35 0 56 -5 58 -12 3 -9 38
-14 116 -16 95 -3 113 -1 118 12 5 12 20 16 60 16 41 0 54 4 54 15 0 10 10 15
30 15 20 0 30 5 30 15 0 10 10 15 30 15 17 0 30 4 30 10 0 5 18 13 39 16 22 4
42 13 45 20 3 8 16 14 30 14 13 0 26 7 30 15 3 9 18 15 36 15 16 0 30 4 30 10
0 5 17 12 38 16 20 4 40 11 43 17 4 5 39 12 78 15 39 2 71 9 71 13 0 5 14 9
30 9 17 0 30 -4 30 -9 0 -4 32 -11 72 -15 40 -4 75 -10 78 -15 3 -4 22 -11 43
-15 20 -4 37 -11 37 -16 0 -4 14 -11 30 -15 17 -4 30 -11 30 -16 0 -5 7 -9 15
-9 8 0 15 -7 15 -15 0 -8 7 -15 15 -15 8 0 15 -7 15 -15 0 -8 7 -15 15 -15 8
0 15 -7 15 -15 0 -8 7 -15 15 -15 8 0 15 -5 15 -11 0 -7 11 -22 25 -35 13 -12
27 -34 31 -48 3 -14 10 -26 15 -26 5 0 9 -13 9 -29 0 -16 7 -36 15 -45 8 -8
15 -26 15 -41 0 -14 6 -28 14 -31 8 -3 17 -16 20 -28 4 -18 15 -25 46 -30 22
-3 40 -11 40 -16 0 -13 57 -13 62 1 2 5 22 13 46 16 26 3 42 11 42 19 0 8 7
14 15 14 11 0 15 11 15 39 0 25 5 41 15 45 9 3 15 18 15 35 0 16 -7 36 -15 45
-8 8 -15 32 -15 55 0 30 -4 41 -15 41 -11 0 -15 11 -15 40 0 27 -5 43 -15 46
-8 4 -15 12 -15 20 0 8 -7 14 -15 14 -10 0 -15 10 -15 30 0 20 -5 30 -15 30
-8 0 -15 7 -15 15 0 8 -7 15 -15 15 -9 0 -15 9 -15 25 0 16 -6 25 -15 25 -8 0
-15 7 -15 15 0 8 -7 15 -15 15 -8 0 -15 7 -15 15 0 8 -7 15 -15 15 -8 0 -15 6
-15 14 0 8 -11 17 -25 20 -14 4 -25 11 -25 16 0 6 -7 10 -15 10 -9 0 -18 7
-21 15 -4 8 -17 15 -30 15 -15 0 -24 6 -24 15 0 10 -10 15 -30 15 -20 0 -30 5
-30 15 0 10 -10 15 -30 15 -20 0 -30 5 -30 15 0 11 -12 15 -45 15 -33 0 -45 4
-45 15 0 12 -13 15 -56 15 -36 0 -61 5 -70 15 -12 12 -42 15 -135 15 -99 0
-119 -3 -119 -15 0 -12 -13 -15 -59 -15 -40 0 -65 -5 -75 -15 -8 -8 -28 -15
-45 -15 -21 0 -31 -5 -31 -15 0 -11 -11 -15 -40 -15 -29 0 -40 -4 -40 -15 0
-10 -10 -15 -30 -15 -20 0 -30 -5 -30 -15 0 -10 -10 -15 -30 -15 -20 0 -30 -5
-30 -15 0 -10 -10 -15 -29 -15 -16 0 -31 -5 -33 -10 -2 -6 -21 -13 -43 -17
-22 -3 -43 -11 -47 -17 -5 -7 -51 -11 -128 -11 -76 0 -123 4 -128 11 -4 6 -25
14 -47 17 -22 4 -41 11 -43 17 -2 5 -10 10 -18 10 -8 0 -14 7 -14 15 0 9 -9
15 -25 15 -16 0 -25 6 -25 15 0 8 -6 15 -14 15 -8 0 -17 14 -21 30 -4 17 -13
30 -21 30 -8 0 -14 7 -14 15 0 8 -5 15 -11 15 -6 0 -17 7 -25 15 -10 10 -35
15 -75 15 -46 0 -59 -3 -59 -15z"/>
<path d="M16386 19675 c-8 -8 -32 -15 -55 -15 -30 0 -41 -4 -41 -15 0 -11 -12
-15 -45 -15 -33 0 -45 -4 -45 -15 0 -10 -10 -15 -30 -15 -20 0 -30 -5 -30 -15
0 -10 -10 -15 -30 -15 -20 0 -30 -5 -30 -15 0 -8 -7 -15 -15 -15 -8 0 -15 -4
-15 -9 0 -5 -10 -13 -22 -16 -11 -4 -31 -18 -43 -31 -12 -13 -26 -24 -30 -24
-12 0 -75 -67 -75 -80 0 -5 -7 -10 -15 -10 -8 0 -15 -7 -15 -15 0 -8 -7 -15
-15 -15 -8 0 -15 -9 -15 -20 0 -11 -7 -20 -15 -20 -9 0 -15 -9 -15 -25 0 -16
-6 -25 -15 -25 -8 0 -15 -6 -15 -14 0 -8 -7 -16 -15 -20 -8 -3 -15 -16 -15
-30 0 -13 -5 -26 -12 -28 -6 -2 -13 -30 -16 -61 -2 -31 -8 -57 -13 -57 -5 0
-9 -11 -9 -25 0 -14 5 -25 10 -25 6 0 10 -20 10 -45 0 -33 4 -45 15 -45 8 0
15 -6 15 -13 0 -21 34 -44 77 -50 56 -9 133 2 133 19 0 8 7 14 15 14 9 0 15 9
15 24 0 13 7 26 15 30 8 3 15 16 15 30 0 13 7 26 15 30 8 3 15 17 15 31 0 14
4 25 9 25 5 0 12 14 16 30 4 17 13 30 21 30 8 0 14 7 14 15 0 8 5 15 10 15 6
0 10 7 10 15 0 8 7 15 15 15 8 0 15 7 15 15 0 8 7 15 15 15 8 0 15 7 15 15 0
8 9 15 20 15 11 0 20 4 20 10 0 5 11 12 25 16 14 3 25 12 25 20 0 8 6 14 14
14 8 0 16 5 18 11 2 5 22 13 46 16 23 3 42 9 42 14 0 4 27 11 60 15 33 4 60
11 60 15 0 5 25 9 55 9 30 0 55 -4 55 -9 0 -5 27 -12 60 -16 33 -4 60 -10 60
-15 0 -4 18 -10 40 -14 22 -3 40 -11 40 -16 0 -6 9 -10 19 -10 11 0 26 -7 35
-15 8 -8 26 -15 41 -15 14 0 28 -6 31 -14 3 -7 23 -16 45 -20 21 -3 39 -11 39
-16 0 -6 14 -10 30 -10 20 0 30 -5 30 -15 0 -11 12 -15 45 -15 33 0 45 -4 45
-15 0 -12 17 -15 90 -15 53 0 90 -4 90 -10 0 -5 14 -10 30 -10 17 0 30 5 30
10 0 6 35 10 85 10 69 0 85 3 85 15 0 11 12 15 45 15 33 0 45 4 45 15 0 10 10
15 30 15 20 0 30 5 30 15 0 9 9 15 25 15 16 0 25 6 25 15 0 8 5 15 10 15 6 0
27 18 49 40 21 22 44 40 50 40 6 0 11 9 11 20 0 11 7 20 15 20 9 0 15 9 15 25
0 16 6 25 15 25 11 0 15 12 15 45 0 33 4 45 15 45 10 0 15 10 15 30 0 20 -5
30 -15 30 -10 0 -15 10 -15 30 0 20 -5 30 -15 30 -8 0 -15 7 -15 15 0 8 -7 15
-15 15 -8 0 -15 7 -15 15 0 11 -12 15 -44 15 -26 0 -51 -6 -60 -15 -8 -8 -22
-15 -30 -15 -9 0 -16 -7 -16 -15 0 -8 -7 -15 -15 -15 -8 0 -15 -7 -15 -15 0
-8 -5 -15 -11 -15 -6 0 -24 -13 -41 -30 -16 -16 -36 -30 -44 -30 -8 0 -14 -7
-14 -15 0 -8 -7 -15 -15 -15 -8 0 -15 -4 -15 -9 0 -5 -15 -13 -32 -16 -18 -4
-36 -13 -40 -19 -11 -16 -270 -15 -275 2 -3 6 -18 12 -34 12 -16 0 -32 6 -35
14 -3 7 -23 16 -45 20 -21 3 -39 11 -39 16 0 6 -11 10 -25 10 -14 0 -28 7 -31
15 -4 9 -19 15 -35 15 -19 0 -29 5 -29 15 0 10 -10 15 -30 15 -20 0 -30 5 -30
15 0 9 -10 15 -26 15 -14 0 -32 7 -40 15 -9 9 -34 15 -60 15 -32 0 -44 4 -44
15 0 13 -25 15 -164 15 -133 0 -167 -3 -180 -15z"/>
<path d="M16820 16800 c0 -5 5 -10 10 -10 6 0 10 5 10 10 0 6 -4 10 -10 10 -5
0 -10 -4 -10 -10z"/>
<path d="M18460 16510 c0 -5 5 -10 10 -10 6 0 10 5 10 10 0 6 -4 10 -10 10 -5
0 -10 -4 -10 -10z"/>
<path d="M18930 14990 c0 -5 5 -10 10 -10 6 0 10 5 10 10 0 6 -4 10 -10 10 -5
0 -10 -4 -10 -10z"/>
<path d="M18840 14864 c0 -9 5 -14 12 -12 18 6 21 28 4 28 -9 0 -16 -7 -16
-16z"/>
<path d="M16260 16770 c0 -5 5 -10 10 -10 6 0 10 5 10 10 0 6 -4 10 -10 10 -5
0 -10 -4 -10 -10z"/>
<path d="M14390 14900 c0 -5 5 -10 10 -10 6 0 10 5 10 10 0 6 -4 10 -10 10 -5
0 -10 -4 -10 -10z"/>
<path d="M18430 14400 c0 -5 5 -10 10 -10 6 0 10 5 10 10 0 6 -4 10 -10 10 -5
0 -10 -4 -10 -10z"/>
<path d="M18170 14135 c0 -8 5 -15 10 -15 6 0 10 7 10 15 0 8 -4 15 -10 15 -5
0 -10 -7 -10 -15z"/>
<path d="M17850 14020 c0 -5 5 -10 10 -10 6 0 10 5 10 10 0 6 -4 10 -10 10 -5
0 -10 -4 -10 -10z"/>
<path d="M17880 13990 c0 -5 5 -10 10 -10 6 0 10 5 10 10 0 6 -4 10 -10 10 -5
0 -10 -4 -10 -10z"/>
<path d="M17930 13935 c0 -8 5 -15 10 -15 6 0 10 7 10 15 0 8 -4 15 -10 15 -5
0 -10 -7 -10 -15z"/>
<path d="M17380 13550 c0 -5 5 -10 10 -10 6 0 10 5 10 10 0 6 -4 10 -10 10 -5
0 -10 -4 -10 -10z"/>
<path d="M17110 13460 c0 -5 7 -10 15 -10 8 0 15 5 15 10 0 6 -7 10 -15 10 -8
0 -15 -4 -15 -10z"/>
<path d="M17170 13430 c0 -5 7 -10 15 -10 8 0 15 5 15 10 0 6 -7 10 -15 10 -8
0 -15 -4 -15 -10z"/>
<path d="M16000 13050 c0 -5 5 -10 10 -10 6 0 10 5 10 10 0 6 -4 10 -10 10 -5
0 -10 -4 -10 -10z"/>
<path d="M10170 17120 c0 -5 5 -10 10 -10 6 0 10 5 10 10 0 6 -4 10 -10 10 -5
0 -10 -4 -10 -10z"/>
<path d="M12190 16070 c0 -5 5 -10 10 -10 6 0 10 5 10 10 0 6 -4 10 -10 10 -5
0 -10 -4 -10 -10z"/>
<path d="M10640 15600 c0 -5 5 -10 10 -10 6 0 10 5 10 10 0 6 -4 10 -10 10 -5
0 -10 -4 -10 -10z"/>
<path d="M11080 14960 c0 -5 5 -10 10 -10 6 0 10 5 10 10 0 6 -4 10 -10 10 -5
0 -10 -4 -10 -10z"/>
<path d="M11050 14925 c0 -8 5 -15 10 -15 6 0 10 7 10 15 0 8 -4 15 -10 15 -5
0 -10 -7 -10 -15z"/>
<path d="M11170 14780 c0 -5 5 -10 10 -10 6 0 10 5 10 10 0 6 -4 10 -10 10 -5
0 -10 -4 -10 -10z"/>
<path d="M14770 14580 c0 -5 5 -10 10 -10 6 0 10 5 10 10 0 6 -4 10 -10 10 -5
0 -10 -4 -10 -10z"/>
<path d="M12340 13670 c0 -5 5 -10 10 -10 6 0 10 5 10 10 0 6 -4 10 -10 10 -5
0 -10 -4 -10 -10z"/>
<path d="M20010 21871 c0 -4 -37 -11 -81 -14 -45 -3 -85 -10 -88 -15 -3 -5
-30 -11 -60 -14 -29 -3 -56 -10 -60 -15 -3 -5 -24 -13 -46 -16 -22 -4 -41 -11
-43 -17 -2 -5 -17 -10 -33 -10 -19 0 -29 -5 -29 -15 0 -10 -10 -15 -30 -15
-20 0 -30 -5 -30 -15 0 -10 -10 -15 -30 -15 -20 0 -30 -5 -30 -15 0 -9 -9 -15
-25 -15 -16 0 -25 -6 -25 -15 0 -8 -9 -15 -20 -15 -11 0 -20 -4 -20 -10 0 -5
-11 -12 -25 -16 -14 -3 -25 -12 -25 -20 0 -8 -7 -14 -16 -14 -8 0 -29 -13 -46
-30 -16 -16 -36 -30 -44 -30 -8 0 -14 -7 -14 -15 0 -8 -7 -15 -15 -15 -8 0
-15 -7 -15 -15 0 -8 -7 -15 -15 -15 -8 0 -15 -7 -15 -15 0 -8 -4 -15 -10 -15
-5 0 -12 -11 -16 -25 -3 -14 -12 -25 -20 -25 -8 0 -14 -6 -14 -14 0 -8 -7 -16
-15 -20 -8 -3 -15 -17 -15 -31 0 -16 -6 -25 -15 -25 -8 0 -15 -7 -15 -15 0 -8
-4 -15 -9 -15 -5 0 -12 -13 -16 -30 -4 -16 -10 -30 -15 -30 -5 0 -11 -13 -15
-30 -4 -16 -10 -30 -15 -30 -4 0 -11 -25 -15 -55 -3 -30 -10 -55 -14 -55 -5 0
-11 -27 -15 -60 -4 -33 -11 -60 -16 -60 -14 0 -13 -287 0 -292 6 -2 13 -28 17
-58 3 -30 10 -58 15 -61 5 -3 12 -25 15 -48 3 -22 9 -41 14 -41 4 0 10 -13 14
-30 4 -16 11 -30 16 -30 5 0 9 -11 9 -25 0 -14 6 -28 14 -31 8 -3 17 -17 21
-32 3 -14 17 -36 31 -49 13 -12 24 -27 24 -33 0 -5 7 -10 15 -10 9 0 15 -9 15
-25 0 -16 6 -25 15 -25 8 0 15 -7 15 -15 0 -8 7 -15 15 -15 10 0 15 -10 15
-30 0 -20 -5 -30 -15 -30 -8 0 -15 -7 -15 -15 0 -8 -4 -15 -9 -15 -5 0 -12
-13 -16 -30 -4 -16 -13 -30 -21 -30 -8 0 -14 -10 -14 -26 0 -14 -7 -32 -15
-40 -21 -22 -22 -224 -1 -224 8 0 17 -13 21 -29 4 -20 14 -31 31 -35 13 -4 24
-11 24 -16 0 -6 24 -10 54 -10 39 0 55 -4 60 -15 4 -11 21 -15 66 -15 33 0 60
-4 60 -10 0 -5 25 -10 55 -10 30 0 55 5 55 10 0 6 27 10 60 10 47 0 60 3 60
15 0 11 12 15 45 15 33 0 45 4 45 15 0 11 11 15 40 15 29 0 40 4 40 15 0 10
10 15 29 15 16 0 31 6 35 15 3 8 17 15 31 15 16 0 25 6 25 15 0 8 9 15 20 15
11 0 20 4 20 10 0 5 11 12 25 16 14 3 25 12 25 20 0 8 7 14 15 14 8 0 15 4 15
8 0 5 86 12 192 15 105 4 194 11 197 15 3 5 40 12 81 16 41 3 77 10 80 15 3 4
25 11 49 14 24 3 47 10 50 15 3 5 23 12 44 16 20 4 37 11 37 16 0 6 14 10 30
10 20 0 30 5 30 15 0 10 10 15 30 15 20 0 30 5 30 15 0 10 10 15 30 15 20 0
30 5 30 15 0 10 10 15 30 15 20 0 30 5 30 15 0 9 9 15 25 15 16 0 25 6 25 15
0 8 6 15 14 15 8 0 16 7 20 15 3 8 12 15 21 15 8 0 15 4 15 10 0 5 11 12 25
16 14 3 25 12 25 20 0 8 7 14 15 14 8 0 15 7 15 15 0 8 7 15 15 15 8 0 15 7
15 15 0 8 7 15 15 15 8 0 15 7 15 15 0 8 7 15 15 15 8 0 15 7 15 15 0 8 7 15
15 15 9 0 15 9 15 25 0 16 6 25 15 25 8 0 15 6 15 14 0 8 7 16 15 20 8 3 15
17 15 31 0 16 6 25 15 25 10 0 15 10 15 30 0 20 5 30 15 30 10 0 15 10 15 29
0 16 5 31 10 33 6 2 13 21 17 43 3 22 10 43 15 46 4 3 11 54 14 115 4 60 12
112 18 117 8 5 8 9 0 15 -6 4 -14 52 -18 107 -4 54 -10 102 -15 105 -4 3 -11
23 -14 44 -4 22 -10 42 -15 45 -5 3 -12 18 -16 34 -3 15 -11 27 -16 27 -6 0
-10 14 -10 30 0 20 -5 30 -15 30 -9 0 -15 9 -15 25 0 14 -7 28 -15 31 -8 4
-15 12 -15 20 0 8 -7 14 -15 14 -9 0 -15 9 -15 25 0 16 -6 25 -15 25 -8 0 -15
4 -15 9 0 13 -128 141 -141 141 -5 0 -9 7 -9 15 0 8 -7 15 -15 15 -8 0 -15 7
-15 15 0 9 -9 15 -25 15 -16 0 -25 6 -25 15 0 8 -9 15 -20 15 -11 0 -20 7 -20
15 0 9 -9 15 -25 15 -16 0 -25 6 -25 15 0 10 -10 15 -30 15 -20 0 -30 5 -30
15 0 10 -10 15 -30 15 -16 0 -30 4 -30 10 0 5 -12 13 -27 16 -16 4 -31 11 -34
16 -3 5 -23 11 -45 15 -21 3 -42 10 -45 16 -4 5 -28 12 -55 15 -27 2 -52 9
-55 14 -3 5 -45 11 -92 15 -48 3 -87 10 -87 14 0 5 -85 9 -190 9 -104 0 -190
-4 -190 -9z m352 -321 c2 -5 36 -12 76 -16 39 -4 72 -10 72 -15 0 -4 25 -11
55 -14 30 -4 55 -11 55 -16 0 -4 16 -11 35 -15 19 -3 35 -10 35 -15 0 -5 11
-9 25 -9 14 0 28 -7 31 -15 4 -8 17 -15 30 -15 15 0 24 -6 24 -15 0 -9 9 -15
25 -15 14 0 28 -7 31 -15 4 -8 12 -15 20 -15 8 0 14 -7 14 -15 0 -8 7 -15 15
-15 8 0 15 -6 15 -14 0 -8 11 -17 25 -20 15 -4 27 -16 31 -31 3 -14 12 -25 20
-25 8 0 14 -7 14 -15 0 -8 7 -15 15 -15 8 0 15 -5 15 -11 0 -7 11 -22 25 -35
13 -12 27 -34 31 -48 3 -14 10 -26 15 -26 5 0 9 -11 9 -25 0 -13 6 -28 14 -32
7 -5 16 -32 18 -63 3 -30 11 -56 17 -58 7 -2 11 -33 11 -82 0 -49 -4 -80 -11
-82 -6 -2 -14 -28 -17 -58 -2 -31 -11 -58 -18 -63 -8 -4 -14 -19 -14 -32 0
-14 -4 -25 -9 -25 -5 0 -12 -13 -16 -30 -4 -16 -13 -30 -21 -30 -8 0 -14 -7
-14 -15 0 -8 -4 -15 -10 -15 -5 0 -10 -7 -10 -15 0 -8 -7 -15 -15 -15 -8 0
-15 -7 -15 -15 0 -8 -7 -15 -15 -15 -8 0 -15 -7 -15 -15 0 -8 -7 -15 -15 -15
-8 0 -15 -7 -15 -15 0 -8 -7 -15 -15 -15 -8 0 -15 -7 -15 -15 0 -8 -6 -15 -14
-15 -8 0 -16 -7 -20 -15 -3 -8 -17 -15 -31 -15 -16 0 -25 -6 -25 -15 0 -8 -7
-15 -15 -15 -8 0 -15 -4 -15 -9 0 -5 -13 -12 -30 -16 -16 -4 -30 -10 -30 -15
0 -5 -13 -11 -30 -15 -16 -4 -30 -10 -30 -15 0 -4 -18 -10 -40 -14 -22 -3 -40
-10 -40 -15 0 -5 -19 -11 -41 -14 -23 -3 -45 -10 -48 -15 -3 -5 -30 -11 -60
-14 -29 -3 -56 -10 -60 -16 -4 -7 -84 -12 -220 -14 -160 -2 -215 -6 -219 -15
-2 -7 -16 -13 -32 -13 -16 0 -35 -7 -44 -15 -8 -8 -22 -15 -30 -15 -9 0 -16
-7 -16 -15 0 -9 -9 -15 -25 -15 -16 0 -25 -6 -25 -15 0 -8 -9 -15 -20 -15 -11
0 -20 -4 -20 -10 0 -5 -11 -12 -24 -16 -14 -3 -27 -12 -30 -20 -3 -9 -20 -14
-46 -14 -29 0 -40 -4 -40 -15 0 -10 -10 -15 -29 -15 -16 0 -31 -5 -33 -12 -3
-7 -32 -14 -71 -16 -57 -4 -67 -2 -67 12 0 9 4 16 9 16 5 0 12 14 16 30 4 17
10 30 15 30 5 0 11 14 15 30 4 17 10 30 14 30 5 0 11 19 14 42 3 24 11 44 16
46 14 5 15 122 1 122 -5 0 -12 11 -16 25 -3 14 -12 25 -20 25 -8 0 -14 6 -14
14 0 8 -11 17 -25 20 -14 4 -25 11 -25 16 0 6 -7 10 -15 10 -8 0 -15 7 -15 15
0 8 -7 15 -15 15 -8 0 -15 7 -15 15 0 8 -7 15 -15 15 -8 0 -15 7 -15 15 0 8
-7 15 -15 15 -9 0 -15 9 -15 25 0 14 -6 28 -14 31 -8 3 -17 16 -20 30 -4 13
-11 24 -16 24 -6 0 -10 15 -10 34 0 19 -7 41 -15 50 -12 12 -15 44 -15 160 0
123 2 146 15 146 11 0 15 11 15 41 0 23 7 47 15 55 8 9 15 28 15 44 0 16 7 30
15 34 8 3 15 12 15 21 0 8 4 15 9 15 5 0 13 10 16 22 4 11 18 31 31 43 13 12
24 27 24 34 0 6 7 11 15 11 8 0 15 7 15 15 0 8 7 15 15 15 8 0 15 7 15 15 0 8
7 15 15 15 8 0 15 7 15 15 0 8 7 15 15 15 8 0 15 4 15 9 0 5 14 12 30 16 17 4
30 13 30 21 0 8 7 14 15 14 8 0 15 4 15 9 0 5 14 12 30 16 17 4 30 10 30 15 0
5 14 11 30 15 17 4 30 10 30 15 0 4 18 10 40 14 22 3 40 10 40 15 0 5 23 11
50 15 28 4 50 10 50 15 0 4 35 11 77 14 43 3 79 11 81 16 5 14 329 15 334 1z"/>
<path d="M19618 20944 c-10 -3 -18 -10 -18 -15 0 -5 -7 -9 -15 -9 -8 0 -15 -7
-15 -15 0 -8 -7 -15 -15 -15 -8 0 -15 -7 -15 -15 0 -8 -7 -15 -15 -15 -12 0
-15 -14 -15 -70 0 -54 4 -72 15 -76 8 -4 15 -12 15 -20 0 -8 7 -14 15 -14 8 0
15 -7 15 -15 0 -8 7 -15 15 -15 8 0 15 -4 15 -10 0 -6 28 -10 65 -10 61 0 66
2 102 38 35 34 38 42 41 106 4 53 1 72 -10 80 -8 6 -18 21 -22 33 -4 12 -17
25 -29 29 -12 4 -25 11 -28 16 -7 11 -76 19 -101 12z"/>
<path d="M20148 20944 c-10 -3 -18 -10 -18 -15 0 -5 -5 -9 -11 -9 -7 0 -27
-16 -45 -35 -32 -32 -34 -38 -34 -105 0 -56 3 -70 15 -70 9 0 15 -9 15 -24 0
-19 7 -26 30 -31 17 -4 30 -11 30 -16 0 -5 27 -9 60 -9 33 0 60 4 60 9 0 5 11
12 24 15 14 3 26 16 30 31 4 14 11 25 16 25 6 0 10 31 10 70 0 67 -2 73 -34
105 -18 19 -38 35 -44 35 -6 0 -12 5 -14 10 -4 12 -65 21 -90 14z"/>
<path d="M20654 20935 c-4 -8 -17 -15 -30 -15 -15 0 -24 -6 -24 -15 0 -8 -6
-15 -14 -15 -17 0 -30 -95 -21 -152 7 -41 45 -88 71 -88 8 0 14 -4 14 -10 0
-6 27 -10 60 -10 33 0 60 4 60 10 0 6 6 10 13 10 16 0 47 36 47 55 0 8 7 15
15 15 12 0 15 14 15 65 0 49 -4 67 -15 71 -8 4 -15 12 -15 20 0 8 -7 14 -15
14 -8 0 -15 7 -15 15 0 8 -7 15 -15 15 -8 0 -15 7 -15 15 0 12 -13 15 -55 15
-40 0 -57 -4 -61 -15z"/>
<path d="M13040 10651 c0 -4 -32 -11 -72 -15 -40 -4 -75 -10 -78 -15 -3 -4
-23 -11 -44 -14 -22 -4 -42 -10 -45 -15 -3 -5 -23 -12 -43 -16 -21 -4 -38 -11
-38 -16 0 -6 -9 -10 -19 -10 -11 0 -26 -6 -33 -13 -7 -8 -26 -17 -41 -21 -15
-3 -27 -11 -27 -16 0 -6 -7 -10 -15 -10 -8 0 -15 -7 -15 -15 0 -10 -10 -15
-30 -15 -20 0 -30 -5 -30 -15 0 -8 -7 -15 -15 -15 -8 0 -15 -7 -15 -15 0 -8
-7 -15 -15 -15 -8 0 -15 -7 -15 -15 0 -8 -5 -15 -11 -15 -12 0 -139 -123 -139
-135 0 -4 -11 -18 -24 -30 -13 -12 -27 -32 -31 -43 -3 -12 -10 -22 -15 -22 -5
0 -11 -13 -15 -30 -4 -16 -10 -30 -15 -30 -5 0 -11 -13 -15 -30 -4 -16 -11
-30 -16 -30 -5 0 -9 -13 -9 -30 0 -20 -5 -30 -15 -30 -11 0 -15 -11 -15 -40 0
-27 -5 -43 -15 -46 -11 -5 -15 -22 -15 -65 0 -46 -3 -59 -15 -59 -13 0 -15
-29 -15 -205 0 -176 2 -205 15 -205 12 0 15 -14 15 -70 0 -56 3 -70 15 -70 11
0 15 -12 15 -45 0 -33 4 -45 15 -45 10 0 15 -10 15 -30 0 -20 5 -30 15 -30 10
0 15 -10 15 -30 0 -20 5 -30 15 -30 8 0 15 -9 15 -20 0 -12 11 -31 25 -44 14
-13 25 -27 25 -32 0 -5 9 -17 20 -27 11 -9 20 -24 20 -32 0 -8 7 -15 15 -15 8
0 15 -5 15 -10 0 -6 11 -21 25 -34 14 -13 25 -28 25 -35 0 -6 5 -11 10 -11 6
0 21 -11 33 -24 13 -14 35 -28 50 -31 15 -4 27 -13 27 -21 0 -8 7 -14 15 -14
8 0 15 -4 15 -9 0 -5 14 -12 30 -16 17 -4 30 -13 30 -21 0 -8 10 -14 25 -14
14 0 25 -4 25 -10 0 -5 16 -12 35 -16 19 -3 35 -10 35 -14 0 -4 18 -10 40 -14
22 -3 40 -10 40 -15 0 -5 19 -11 41 -14 23 -3 45 -10 48 -15 3 -5 44 -12 91
-15 47 -4 86 -11 88 -17 2 -6 67 -10 172 -10 105 0 170 4 172 10 2 6 41 13 88
17 47 3 88 11 92 16 3 6 31 12 62 15 31 2 56 8 56 13 0 5 18 12 40 15 22 4 40
10 40 14 0 4 16 11 35 14 19 4 35 11 35 16 0 6 11 10 25 10 14 0 28 7 31 15 4
8 17 15 30 15 14 0 27 7 30 15 4 8 17 15 30 15 15 0 24 6 24 15 0 8 7 15 15
15 9 0 18 7 21 15 4 8 17 15 30 15 l24 0 0 455 0 455 -260 0 -260 0 0 -287 c0
-159 -3 -298 -6 -310 -4 -16 -14 -23 -29 -23 -13 0 -25 -5 -27 -10 -2 -6 -29
-14 -61 -17 -31 -3 -57 -10 -57 -14 0 -5 -72 -9 -160 -9 -88 0 -160 4 -160 9
0 5 -22 11 -50 15 -27 4 -50 10 -50 15 0 5 -18 11 -40 15 -22 3 -40 11 -40 16
0 6 -7 10 -15 10 -8 0 -15 7 -15 15 0 9 -9 15 -25 15 -14 0 -28 7 -31 15 -4 8
-12 15 -20 15 -8 0 -14 7 -14 15 0 8 -7 15 -15 15 -8 0 -15 7 -15 15 0 8 -7
15 -15 15 -8 0 -15 7 -15 15 0 8 -4 15 -9 15 -5 0 -12 14 -16 30 -4 17 -10 30
-15 30 -5 0 -11 14 -15 30 -4 17 -10 30 -15 30 -4 0 -10 23 -12 52 -3 29 -11
54 -17 56 -14 5 -16 302 -2 302 5 0 13 25 16 55 4 30 11 55 15 55 5 0 11 14
15 30 4 17 10 30 15 30 4 0 11 12 14 26 4 14 18 36 31 48 14 13 25 28 25 35 0
6 7 11 15 11 8 0 15 7 15 15 0 8 7 15 15 15 8 0 15 7 15 15 0 8 7 15 15 15 8
0 15 4 15 9 0 5 14 12 30 16 17 4 30 10 30 15 0 4 12 11 27 15 15 3 31 11 34
17 4 6 31 13 60 16 30 3 57 10 61 16 10 15 306 15 316 0 4 -6 29 -14 57 -17
27 -3 51 -10 53 -16 2 -6 17 -11 33 -11 19 0 29 -5 29 -15 0 -10 10 -15 30
-15 20 0 30 -5 30 -15 0 -10 10 -15 30 -15 20 0 30 -5 30 -15 0 -8 7 -15 15
-15 8 0 15 -7 15 -15 0 -10 10 -15 30 -15 20 0 30 -5 30 -15 0 -10 10 -15 30
-15 20 0 30 5 30 15 0 8 7 15 15 15 8 0 15 7 15 15 0 8 7 15 15 15 8 0 15 7
15 15 0 8 5 15 10 15 6 0 10 7 10 15 0 8 7 15 15 15 8 0 15 7 15 15 0 8 7 15
15 15 8 0 15 7 15 15 0 8 7 15 15 15 8 0 15 7 15 15 0 8 6 15 14 15 8 0 17 11
20 25 4 14 11 25 16 25 6 0 10 7 10 15 0 8 7 15 15 15 8 0 15 7 15 15 0 8 7
15 15 15 10 0 15 10 15 30 0 20 -5 30 -15 30 -8 0 -15 7 -15 15 0 8 -7 15 -15
15 -8 0 -15 7 -15 15 0 8 -7 15 -15 15 -8 0 -15 7 -15 15 0 9 -9 15 -25 15
-14 0 -25 5 -25 10 0 6 -8 14 -17 17 -10 4 -24 13 -31 20 -7 7 -22 13 -33 13
-10 0 -19 7 -19 15 0 9 -9 15 -25 15 -14 0 -25 4 -25 9 0 5 -12 12 -27 16 -15
3 -30 11 -34 16 -3 5 -23 12 -45 16 -21 3 -42 10 -45 15 -3 5 -25 12 -48 15
-22 3 -41 9 -41 13 0 4 -34 11 -75 15 -41 4 -75 11 -75 16 0 5 -92 9 -215 9
-118 0 -215 -4 -215 -9z"/>
<path d="M20233 10632 l-253 -2 0 -30 c0 -20 -5 -30 -15 -30 -9 0 -15 -10 -15
-26 0 -14 -7 -32 -15 -40 -8 -9 -15 -29 -15 -45 0 -19 -5 -29 -15 -29 -9 0
-15 -10 -15 -26 0 -14 -7 -32 -15 -40 -8 -9 -15 -24 -15 -35 0 -10 -4 -19 -10
-19 -5 0 -13 -18 -16 -40 -4 -22 -10 -40 -14 -40 -5 0 -11 -13 -15 -30 -4 -16
-10 -30 -15 -30 -4 0 -11 -16 -14 -35 -4 -19 -11 -35 -15 -35 -5 0 -11 -18
-15 -40 -3 -22 -10 -40 -15 -40 -5 0 -12 -13 -16 -30 -4 -16 -11 -30 -16 -30
-5 0 -9 -13 -9 -30 0 -20 -5 -30 -15 -30 -10 0 -15 -10 -15 -30 0 -20 -5 -30
-15 -30 -11 0 -15 -11 -15 -40 0 -29 -4 -40 -15 -40 -10 0 -15 -10 -15 -30 0
-20 -5 -30 -15 -30 -10 0 -15 -10 -15 -30 0 -20 -5 -30 -15 -30 -11 0 -15 -11
-15 -39 0 -25 -5 -41 -15 -45 -9 -3 -15 -18 -15 -36 0 -20 -5 -30 -15 -30 -9
0 -15 -10 -15 -26 0 -14 -7 -32 -15 -40 -8 -9 -15 -28 -15 -44 0 -16 -7 -30
-15 -34 -8 -3 -15 -17 -15 -31 0 -14 -4 -25 -9 -25 -5 0 -12 -13 -16 -30 -4
-16 -11 -30 -16 -30 -5 0 -9 -9 -9 -19 0 -11 -6 -26 -13 -33 -8 -7 -16 -31
-20 -52 -3 -22 -11 -42 -16 -45 -5 -4 -13 -19 -16 -34 -4 -15 -11 -27 -16 -27
-5 0 -9 -11 -9 -25 0 -14 -7 -28 -15 -31 -8 -4 -15 -18 -15 -34 0 -16 -7 -35
-15 -44 -8 -8 -15 -26 -15 -40 0 -16 -6 -26 -15 -26 -10 0 -15 -10 -15 -30 0
-20 -5 -30 -15 -30 -11 0 -15 -11 -15 -39 0 -25 -5 -41 -15 -45 -9 -3 -15 -18
-15 -36 0 -20 -5 -30 -15 -30 -10 0 -15 -10 -15 -30 0 -20 -5 -30 -15 -30 -9
0 -15 -9 -15 -24 0 -58 -11 -56 281 -56 l269 0 6 27 c4 15 13 34 21 41 7 7 13
27 13 43 0 19 5 29 15 29 10 0 15 10 15 29 0 16 6 31 15 35 8 3 15 16 15 30 0
13 5 26 11 28 5 2 13 22 16 46 3 23 9 42 14 42 4 0 10 14 14 30 4 17 11 30 16
30 5 0 9 7 9 15 0 13 57 15 455 15 l455 0 0 -30 c0 -17 6 -33 14 -36 7 -3 16
-23 20 -45 3 -21 11 -39 16 -39 6 0 10 -13 10 -30 0 -20 5 -30 15 -30 11 0 15
-11 15 -40 0 -29 4 -40 15 -40 10 0 15 -11 15 -35 0 -24 5 -35 15 -35 10 0 15
-10 15 -30 0 -27 3 -30 30 -30 17 0 30 -4 30 -10 0 -6 83 -10 230 -10 147 0
230 4 230 10 0 6 14 10 30 10 20 0 30 5 30 15 0 8 -4 15 -9 15 -5 0 -12 16
-15 35 -4 19 -11 35 -15 35 -5 0 -11 18 -15 40 -3 22 -10 40 -15 40 -5 0 -12
14 -16 30 -4 17 -11 30 -16 30 -5 0 -9 14 -9 30 0 20 -5 30 -15 30 -10 0 -15
10 -15 30 0 20 -5 30 -15 30 -11 0 -15 11 -15 40 0 29 -4 40 -15 40 -10 0 -15
10 -15 29 0 16 -6 31 -15 35 -8 3 -15 17 -15 31 0 15 -7 33 -15 41 -8 9 -15
29 -15 45 0 19 -5 29 -15 29 -9 0 -15 10 -15 26 0 14 -7 32 -15 40 -8 9 -15
24 -15 35 0 10 -4 19 -10 19 -5 0 -13 18 -16 40 -4 22 -10 40 -15 40 -4 0 -11
16 -15 35 -3 19 -10 35 -14 35 -5 0 -11 14 -15 30 -4 17 -10 30 -15 30 -4 0
-10 18 -14 40 -3 22 -11 40 -16 40 -6 0 -10 14 -10 30 0 20 -5 30 -15 30 -10
0 -15 10 -15 29 0 16 -7 36 -15 45 -8 8 -15 26 -15 40 0 16 -6 26 -15 26 -10
0 -15 11 -15 35 0 24 -5 35 -15 35 -11 0 -15 11 -15 40 0 29 -4 40 -15 40 -10
0 -15 10 -15 30 0 20 -5 30 -15 30 -9 0 -15 10 -15 26 0 14 -7 32 -15 40 -8 9
-15 28 -15 44 0 16 -7 30 -15 34 -8 3 -15 16 -15 30 0 13 -7 26 -15 30 -8 3
-15 17 -15 31 0 15 -7 33 -15 41 -8 9 -15 24 -15 35 0 10 -4 19 -10 19 -5 0
-13 18 -16 40 -4 22 -10 40 -14 40 -5 0 -11 14 -15 30 -4 17 -11 30 -16 30 -5
0 -9 13 -9 29 0 16 -6 36 -13 43 -8 7 -17 26 -21 41 -3 15 -11 27 -16 27 -6 0
-10 14 -10 30 0 19 -5 30 -14 30 -8 0 -20 1 -28 3 -7 1 -127 1 -265 -1z m37
-672 c0 -20 5 -30 15 -30 10 0 15 -10 15 -29 0 -16 7 -36 15 -45 8 -8 15 -26
15 -41 0 -14 7 -28 15 -31 9 -4 15 -19 15 -35 0 -19 5 -29 15 -29 11 0 15 -11
15 -40 0 -29 4 -40 15 -40 10 0 15 -10 15 -30 0 -20 5 -30 15 -30 11 0 15 -11
15 -39 0 -25 5 -41 15 -45 9 -3 15 -18 15 -36 0 -20 5 -30 15 -30 10 0 15 -10
15 -30 0 -20 -5 -30 -15 -30 -8 0 -15 -4 -15 -10 0 -5 -7 -10 -15 -10 -8 0
-15 5 -15 10 0 6 -7 10 -15 10 -8 0 -15 -4 -15 -10 0 -6 -75 -10 -205 -10
l-205 0 0 41 c0 23 7 47 15 55 8 9 15 28 15 44 0 16 7 30 15 34 10 3 15 19 15
46 0 29 4 40 15 40 9 0 15 10 15 26 0 14 7 32 15 40 8 9 15 24 15 35 0 10 4
19 10 19 5 0 13 18 16 40 4 22 10 40 15 40 4 0 11 16 15 35 3 19 10 35 14 35
4 0 10 18 14 40 4 26 11 40 21 40 8 0 15 7 15 15 0 8 5 15 10 15 6 0 10 -13
10 -30z"/>
<path d="M7880 9576 c0 -834 -3 -1056 -12 -1060 -10 -5 -10 -7 0 -12 6 -3 12
-12 12 -20 0 -12 117 -14 805 -14 530 0 805 3 805 10 0 6 7 10 15 10 13 0 15
31 15 219 0 218 0 219 -22 225 -13 3 -263 6 -555 6 l-533 0 0 199 c0 198 0
199 23 205 12 3 223 6 470 6 l447 0 0 213 c0 201 -1 214 -20 230 -18 16 -58
17 -454 17 -239 0 -441 3 -450 6 -14 5 -16 30 -16 174 0 144 2 169 16 174 9 3
173 6 365 6 226 0 349 4 349 10 0 6 65 10 175 10 l175 0 0 220 0 220 -805 0
-805 0 0 -1054z"/>
<path d="M9850 10363 c-1 -148 -3 -625 -6 -1062 -6 -788 -5 -793 15 -812 19
-18 38 -19 266 -19 189 0 245 3 245 13 0 6 2 255 3 551 2 421 5 540 15 544 6
2 12 10 12 17 0 7 -6 16 -12 18 -10 4 -9 8 2 16 22 15 40 13 40 -4 0 -8 7 -15
15 -15 10 0 15 -10 15 -30 0 -20 5 -30 15 -30 8 0 15 -7 15 -15 0 -8 7 -15 15
-15 8 0 15 -7 15 -15 0 -8 7 -15 15 -15 8 0 15 -7 15 -15 0 -8 4 -15 9 -15 5
0 13 -9 16 -21 4 -11 24 -37 44 -57 21 -21 40 -45 44 -54 3 -10 11 -18 16 -18
5 0 12 -11 15 -25 4 -14 11 -25 16 -25 6 0 10 -7 10 -15 0 -8 7 -15 15 -15 8
0 15 -7 15 -15 0 -8 7 -15 15 -15 10 0 15 -10 15 -30 0 -20 5 -30 15 -30 8 0
15 -7 15 -15 0 -8 7 -15 15 -15 8 0 15 -7 15 -15 0 -8 7 -15 15 -15 9 0 15 -9
15 -25 0 -16 6 -25 15 -25 8 0 15 -6 15 -14 0 -8 7 -16 15 -20 8 -3 15 -12 15
-21 0 -8 7 -15 15 -15 8 0 15 -7 15 -15 0 -8 4 -15 9 -15 5 0 13 -10 16 -22 4
-11 18 -31 31 -43 13 -12 24 -26 24 -31 0 -5 9 -17 20 -27 11 -9 20 -24 20
-32 0 -8 5 -15 10 -15 6 0 10 -7 10 -15 0 -8 7 -15 15 -15 8 0 15 -7 15 -15 0
-8 7 -15 15 -15 9 0 15 -9 15 -25 0 -14 7 -28 15 -31 8 -4 15 -12 15 -20 0 -8
7 -14 15 -14 8 0 15 -7 15 -15 0 -8 7 -15 15 -15 9 0 15 -9 15 -25 0 -16 6
-25 15 -25 8 0 15 -7 15 -15 0 -8 7 -15 15 -15 8 0 15 -7 15 -15 0 -13 33 -15
235 -15 202 0 235 2 235 15 0 8 5 15 10 15 7 0 10 357 10 1051 0 897 -2 1053
-14 1065 -12 11 -63 14 -275 14 l-261 0 0 -600 c0 -527 -2 -600 -15 -600 -8 0
-15 9 -15 20 0 11 -4 20 -10 20 -5 0 -12 11 -16 25 -3 14 -12 25 -20 25 -8 0
-14 7 -14 15 0 8 -7 15 -15 15 -8 0 -15 7 -15 15 0 8 -4 15 -9 15 -5 0 -12 14
-16 30 -4 17 -13 30 -21 30 -8 0 -14 5 -14 11 0 7 -11 22 -24 34 -13 12 -27
32 -31 43 -3 12 -11 22 -16 22 -5 0 -9 6 -9 13 0 7 -13 24 -29 38 -15 14 -31
35 -35 47 -4 12 -12 22 -17 22 -5 0 -9 7 -9 15 0 8 -7 15 -15 15 -8 0 -15 7
-15 15 0 8 -7 15 -15 15 -8 0 -15 9 -15 20 0 11 -4 20 -10 20 -5 0 -12 11 -16
25 -3 14 -12 25 -20 25 -8 0 -14 7 -14 15 0 8 -7 15 -15 15 -8 0 -15 7 -15 15
0 8 -4 15 -10 15 -5 0 -12 11 -16 24 -3 14 -12 27 -20 30 -8 3 -14 10 -14 16
0 7 -13 25 -30 42 -16 16 -30 34 -30 39 0 6 -11 20 -25 33 -14 13 -25 28 -25
35 0 6 -7 11 -15 11 -8 0 -15 7 -15 15 0 9 -7 18 -15 21 -8 4 -15 17 -15 30 0
15 -6 24 -15 24 -8 0 -15 7 -15 15 0 8 -6 15 -14 15 -8 0 -17 11 -20 25 -4 14
-11 25 -16 25 -6 0 -10 9 -10 20 0 11 -7 20 -15 20 -8 0 -15 7 -15 15 0 8 -7
15 -15 15 -8 0 -15 7 -15 15 0 8 -4 15 -10 15 -5 0 -12 11 -16 25 l-6 25 -244
0 -244 0 0 -267z"/>
<path d="M14240 10606 c0 -13 5 -26 11 -28 6 -2 14 -28 17 -58 2 -31 11 -58
18 -63 8 -5 14 -25 14 -47 0 -21 5 -40 10 -42 6 -2 13 -21 17 -43 3 -22 10
-43 15 -46 5 -3 12 -25 15 -48 3 -22 9 -41 13 -41 4 0 11 -20 14 -45 4 -25 11
-45 15 -45 5 0 12 -25 16 -55 3 -30 11 -55 16 -55 5 0 9 -13 9 -29 0 -16 7
-36 15 -45 8 -8 15 -28 15 -45 0 -16 7 -36 15 -45 8 -8 15 -32 15 -55 0 -30 4
-41 15 -41 11 0 15 -12 15 -45 0 -31 5 -47 15 -51 10 -4 15 -20 15 -45 0 -28
4 -39 15 -39 11 0 15 -13 15 -54 0 -39 4 -55 15 -60 10 -3 15 -19 15 -45 0
-25 5 -41 15 -45 10 -3 15 -19 15 -45 0 -25 5 -41 15 -45 10 -3 15 -19 15 -45
0 -22 5 -41 11 -43 5 -2 13 -22 16 -46 3 -23 9 -42 14 -42 4 0 11 -25 14 -55
4 -30 11 -55 16 -55 4 0 11 -20 15 -45 3 -25 10 -45 14 -45 4 0 10 -19 13 -41
3 -23 10 -45 15 -48 6 -3 13 -32 17 -63 4 -32 11 -58 15 -58 4 0 10 -19 13
-42 3 -24 11 -44 16 -46 6 -2 11 -20 11 -41 0 -69 7 -71 285 -71 157 0 245 4
245 10 0 6 7 10 15 10 11 0 15 12 15 45 0 33 4 45 15 45 11 0 15 12 15 45 0
33 4 45 15 45 10 0 15 10 15 31 0 17 7 37 15 45 8 9 15 33 15 55 0 23 7 47 15
55 8 9 15 31 15 50 0 19 4 34 10 34 5 0 13 18 16 40 4 22 10 40 14 40 4 0 10
19 13 41 3 23 10 45 15 48 5 3 12 24 15 45 4 22 10 42 15 45 5 3 12 24 15 45
4 22 10 42 15 45 5 3 12 28 15 56 3 27 10 51 16 53 6 2 11 19 11 37 0 19 7 40
15 49 8 8 15 32 15 55 0 30 4 41 15 41 11 0 15 12 15 45 0 33 4 45 15 45 11 0
15 11 15 40 0 29 4 40 15 40 11 0 15 -11 15 -40 0 -29 4 -40 15 -40 11 0 15
-12 15 -45 0 -33 4 -45 15 -45 11 0 15 -12 15 -45 0 -33 4 -45 15 -45 11 0 15
-11 15 -41 0 -23 7 -47 15 -55 8 -9 15 -28 15 -44 0 -16 5 -30 11 -32 5 -2 13
-22 16 -46 3 -23 9 -42 13 -42 4 0 10 -19 13 -41 3 -23 10 -45 15 -48 5 -3 13
-30 17 -58 4 -29 10 -53 15 -53 4 0 10 -19 13 -41 3 -23 10 -45 15 -48 5 -3
12 -24 15 -46 4 -22 11 -41 17 -43 5 -2 10 -24 10 -48 0 -32 4 -44 15 -44 11
0 15 -12 15 -44 0 -26 6 -51 15 -60 8 -8 15 -32 15 -56 0 -27 5 -43 15 -46 10
-4 15 -20 15 -45 l0 -39 265 0 c182 0 265 3 265 11 0 6 7 17 15 25 8 9 15 29
15 45 0 17 7 37 15 45 8 9 15 29 15 45 0 16 4 29 9 29 4 0 11 19 14 41 3 23
10 45 15 48 5 3 12 24 15 45 4 22 10 42 15 45 5 3 12 28 14 55 3 27 10 51 15
55 6 3 13 24 16 46 4 22 11 41 17 43 5 2 10 24 10 48 0 32 4 44 15 44 11 0 15
12 15 45 0 33 4 45 15 45 11 0 15 12 15 44 0 26 6 51 15 60 8 8 15 32 15 55 0
30 4 41 15 41 11 0 15 12 15 45 0 33 4 45 15 45 11 0 15 12 15 45 0 33 4 45
15 45 11 0 15 13 15 54 0 39 4 55 15 60 10 3 15 19 15 45 0 25 5 41 15 45 10
3 15 19 15 45 0 22 5 41 10 43 6 2 13 21 17 43 3 22 10 43 15 46 5 3 12 25 15
48 3 22 9 41 13 41 4 0 11 25 15 55 3 30 10 55 14 55 5 0 11 19 14 41 3 23 10
45 15 48 5 3 12 24 15 45 4 22 10 42 15 45 5 3 12 24 15 46 4 22 11 41 17 43
5 2 10 21 10 43 0 26 5 42 15 45 10 4 15 20 15 45 l0 39 -274 0 -274 0 -7 -55
c-3 -30 -10 -55 -14 -55 -5 0 -11 -27 -15 -60 -4 -33 -11 -60 -15 -60 -5 0
-12 -25 -16 -55 -3 -30 -10 -55 -14 -55 -5 0 -11 -21 -14 -46 -2 -26 -9 -49
-14 -53 -6 -3 -13 -28 -16 -56 -3 -27 -10 -51 -16 -53 -6 -2 -11 -24 -11 -48
0 -32 -4 -44 -15 -44 -12 0 -15 -13 -15 -55 0 -42 -3 -55 -15 -55 -11 0 -15
-12 -15 -46 0 -27 -6 -51 -15 -60 -9 -9 -15 -34 -15 -60 0 -32 -4 -44 -15 -44
-11 0 -15 -13 -15 -54 0 -39 -4 -55 -15 -60 -10 -3 -15 -19 -15 -46 0 -24 -7
-48 -15 -56 -8 -9 -15 -31 -15 -50 0 -19 -4 -34 -10 -34 -5 0 -13 -18 -16 -40
-4 -22 -10 -40 -14 -40 -11 0 -20 26 -20 55 0 13 -5 25 -11 27 -5 2 -13 22
-16 46 -3 23 -9 42 -14 42 -4 0 -11 20 -15 45 -3 25 -10 45 -14 45 -4 0 -10
19 -13 42 -3 24 -11 44 -16 46 -6 2 -11 21 -11 43 0 26 -5 42 -15 45 -10 4
-15 20 -15 49 0 25 -6 50 -15 59 -8 8 -15 32 -15 55 0 28 -4 41 -14 41 -9 0
-15 18 -18 57 -3 31 -10 59 -16 61 -7 2 -12 23 -12 48 0 32 -4 44 -15 44 -12
0 -15 13 -15 55 0 42 -3 55 -15 55 -12 0 -15 13 -15 60 0 47 -3 60 -15 60 -11
0 -15 11 -15 41 0 23 -7 47 -15 55 -8 9 -15 31 -15 50 0 19 -4 34 -10 34 -5 0
-13 18 -16 40 l-7 40 -258 0 -259 0 -6 -25 c-3 -14 -10 -25 -14 -25 -4 0 -10
-19 -13 -42 -3 -24 -11 -44 -16 -46 -6 -2 -11 -24 -11 -48 0 -32 -4 -44 -15
-44 -11 0 -15 -12 -15 -44 0 -26 -6 -51 -15 -60 -8 -8 -15 -32 -15 -56 0 -27
-5 -43 -15 -46 -11 -5 -15 -21 -15 -60 0 -41 -4 -54 -15 -54 -11 0 -15 -12
-15 -45 0 -33 -4 -45 -15 -45 -11 0 -15 -11 -15 -41 0 -23 -7 -47 -15 -55 -9
-9 -15 -34 -15 -59 0 -29 -5 -45 -15 -49 -10 -3 -15 -19 -15 -45 0 -22 -5 -41
-11 -43 -6 -2 -13 -25 -16 -51 -3 -26 -9 -47 -14 -47 -4 0 -11 -25 -14 -55 -4
-30 -11 -55 -16 -55 -5 0 -12 -18 -15 -40 -4 -22 -10 -40 -15 -40 -4 0 -11
-20 -15 -45 -5 -38 -10 -45 -29 -45 -20 0 -23 6 -27 51 -3 28 -10 54 -15 58
-5 3 -13 24 -16 46 -4 22 -11 41 -17 43 -5 2 -10 24 -10 48 0 32 -4 44 -15 44
-11 0 -15 12 -15 44 0 26 -6 51 -15 60 -9 9 -15 33 -15 60 0 34 -4 46 -15 46
-12 0 -15 13 -15 55 0 42 -3 55 -15 55 -11 0 -15 11 -15 41 0 23 -7 47 -15 55
-9 9 -15 34 -15 59 0 29 -5 45 -15 49 -10 3 -15 19 -15 46 0 24 -7 48 -15 56
-9 9 -15 34 -15 59 0 24 -5 45 -11 47 -5 2 -13 22 -16 46 -3 23 -9 42 -13 42
-4 0 -11 25 -15 55 -3 30 -10 55 -14 55 -5 0 -11 14 -15 31 -12 59 -10 59
-295 59 l-261 0 0 -24z"/>
<path d="M17610 9570 c0 -1047 0 -1060 20 -1080 19 -19 33 -20 260 -20 153 0
240 4 240 10 0 6 7 10 15 10 13 0 15 126 15 1070 l0 1070 -275 0 -275 0 0
-1060z"/>
<path d="M21620 9560 l0 -1070 60 0 c33 0 60 -4 60 -10 0 -6 75 -10 205 -10
176 0 205 2 205 15 0 8 5 15 10 15 6 0 10 73 10 200 0 127 -4 200 -10 200 -6
0 -10 87 -10 240 0 153 4 240 10 240 7 0 10 210 10 610 0 400 -3 610 -10 610
-5 0 -10 7 -10 15 0 13 -36 15 -265 15 l-265 0 0 -1070z"/>
<path d="M17730 7750 c0 -5 5 -10 10 -10 6 0 10 5 10 10 0 6 -4 10 -10 10 -5
0 -10 -4 -10 -10z"/>
<path d="M15530 7726 c0 -9 7 -16 16 -16 17 0 14 22 -4 28 -7 2 -12 -3 -12
-12z"/>
<path d="M14240 7720 c0 -5 5 -10 10 -10 6 0 10 5 10 10 0 6 -4 10 -10 10 -5
0 -10 -4 -10 -10z"/>
<path d="M16140 7720 c0 -5 7 -10 15 -10 8 0 15 5 15 10 0 6 -7 10 -15 10 -8
0 -15 -4 -15 -10z"/>
<path d="M17140 7720 c0 -5 5 -10 10 -10 6 0 10 5 10 10 0 6 -4 10 -10 10 -5
0 -10 -4 -10 -10z"/>
<path d="M17320 7720 c0 -5 5 -10 10 -10 6 0 10 5 10 10 0 6 -4 10 -10 10 -5
0 -10 -4 -10 -10z"/>
<path d="M12490 7690 c0 -5 5 -10 10 -10 6 0 10 5 10 10 0 6 -4 10 -10 10 -5
0 -10 -4 -10 -10z"/>
<path d="M12660 7660 c0 -5 5 -10 10 -10 6 0 10 5 10 10 0 6 -4 10 -10 10 -5
0 -10 -4 -10 -10z"/>
<path d="M14510 7660 c0 -5 5 -10 10 -10 6 0 10 5 10 10 0 6 -4 10 -10 10 -5
0 -10 -4 -10 -10z"/>
<path d="M14590 7660 c0 -5 5 -10 10 -10 6 0 10 5 10 10 0 6 -4 10 -10 10 -5
0 -10 -4 -10 -10z"/>
<path d="M11340 7635 c0 -8 5 -15 10 -15 6 0 10 7 10 15 0 8 -4 15 -10 15 -5
0 -10 -7 -10 -15z"/>
<path d="M12690 7630 c0 -5 5 -10 10 -10 6 0 10 5 10 10 0 6 -4 10 -10 10 -5
0 -10 -4 -10 -10z"/>
<path d="M15800 7630 c0 -5 5 -10 10 -10 6 0 10 5 10 10 0 6 -4 10 -10 10 -5
0 -10 -4 -10 -10z"/>
<path d="M17440 7600 c0 -5 5 -10 10 -10 6 0 10 5 10 10 0 6 -4 10 -10 10 -5
0 -10 -4 -10 -10z"/>
<path d="M12750 7570 c0 -5 5 -10 10 -10 6 0 10 5 10 10 0 6 -4 10 -10 10 -5
0 -10 -4 -10 -10z"/>
<path d="M16760 7515 c0 -8 5 -15 10 -15 6 0 10 7 10 15 0 8 -4 15 -10 15 -5
0 -10 -7 -10 -15z"/>
<path d="M12690 7485 c0 -8 5 -15 10 -15 6 0 10 7 10 15 0 8 -4 15 -10 15 -5
0 -10 -7 -10 -15z"/>
<path d="M18050 7430 c0 -5 5 -10 10 -10 6 0 10 5 10 10 0 6 -4 10 -10 10 -5
0 -10 -4 -10 -10z"/>
<path d="M11720 7355 c0 -14 5 -25 10 -25 6 0 10 11 10 25 0 14 -4 25 -10 25
-5 0 -10 -11 -10 -25z"/>
<path d="M17490 7365 c0 -8 5 -15 10 -15 6 0 10 7 10 15 0 8 -4 15 -10 15 -5
0 -10 -7 -10 -15z"/>
<path d="M12750 7190 c0 -5 5 -10 10 -10 6 0 10 5 10 10 0 6 -4 10 -10 10 -5
0 -10 -4 -10 -10z"/>
<path d="M13570 7190 c0 -5 5 -10 10 -10 6 0 10 5 10 10 0 6 -4 10 -10 10 -5
0 -10 -4 -10 -10z"/>
<path d="M16700 7160 c0 -5 5 -10 10 -10 6 0 10 5 10 10 0 6 -4 10 -10 10 -5
0 -10 -4 -10 -10z"/>
<path d="M17440 7160 c0 -5 5 -10 10 -10 6 0 10 5 10 10 0 6 -4 10 -10 10 -5
0 -10 -4 -10 -10z"/>
<path d="M13040 7135 c0 -8 5 -15 10 -15 6 0 10 7 10 15 0 8 -4 15 -10 15 -5
0 -10 -7 -10 -15z"/>
<path d="M12630 7130 c0 -5 5 -10 10 -10 6 0 10 5 10 10 0 6 -4 10 -10 10 -5
0 -10 -4 -10 -10z"/>
<path d="M17380 7100 c0 -5 5 -10 10 -10 6 0 10 5 10 10 0 6 -4 10 -10 10 -5
0 -10 -4 -10 -10z"/>
<path d="M13160 7075 c0 -8 5 -15 10 -15 6 0 10 7 10 15 0 8 -4 15 -10 15 -5
0 -10 -7 -10 -15z"/>
<path d="M12452 7048 c6 -18 28 -21 28 -4 0 9 -7 16 -16 16 -9 0 -14 -5 -12
-12z"/>
<path d="M12630 7050 c0 -5 5 -10 10 -10 6 0 10 5 10 10 0 6 -4 10 -10 10 -5
0 -10 -4 -10 -10z"/>
<path d="M13220 7050 c0 -5 5 -10 10 -10 6 0 10 5 10 10 0 6 -4 10 -10 10 -5
0 -10 -4 -10 -10z"/>
<path d="M13450 7050 c0 -5 5 -10 10 -10 6 0 10 5 10 10 0 6 -4 10 -10 10 -5
0 -10 -4 -10 -10z"/>
<path d="M13570 7045 c0 -8 5 -15 10 -15 6 0 10 7 10 15 0 8 -4 15 -10 15 -5
0 -10 -7 -10 -15z"/>
<path d="M14740 7045 c0 -8 5 -15 10 -15 6 0 10 7 10 15 0 8 -4 15 -10 15 -5
0 -10 -7 -10 -15z"/>
<path d="M12570 7020 c0 -5 5 -10 10 -10 6 0 10 5 10 10 0 6 -4 10 -10 10 -5
0 -10 -4 -10 -10z"/>
<path d="M13390 7020 c0 -5 5 -10 10 -10 6 0 10 5 10 10 0 6 -4 10 -10 10 -5
0 -10 -4 -10 -10z"/>
<path d="M13510 7015 c0 -8 5 -15 10 -15 6 0 10 7 10 15 0 8 -4 15 -10 15 -5
0 -10 -7 -10 -15z"/>
<path d="M16850 7020 c0 -5 5 -10 10 -10 6 0 10 5 10 10 0 6 -4 10 -10 10 -5
0 -10 -4 -10 -10z"/>
<path d="M15800 6995 c0 -8 5 -15 10 -15 6 0 10 7 10 15 0 8 -4 15 -10 15 -5
0 -10 -7 -10 -15z"/>
<path d="M16350 6995 c0 -8 5 -15 10 -15 6 0 10 7 10 15 0 8 -4 15 -10 15 -5
0 -10 -7 -10 -15z"/>
<path d="M12480 6990 c0 -5 7 -10 15 -10 8 0 15 5 15 10 0 6 -7 10 -15 10 -8
0 -15 -4 -15 -10z"/>
<path d="M13480 6990 c0 -5 5 -10 10 -10 6 0 10 5 10 10 0 6 -4 10 -10 10 -5
0 -10 -4 -10 -10z"/>
<path d="M15500 6990 c0 -5 5 -10 10 -10 6 0 10 5 10 10 0 6 -4 10 -10 10 -5
0 -10 -4 -10 -10z"/>
<path d="M16410 6990 c0 -5 5 -10 10 -10 6 0 10 5 10 10 0 6 -4 10 -10 10 -5
0 -10 -4 -10 -10z"/>
<path d="M17730 6990 c0 -5 5 -10 10 -10 6 0 10 5 10 10 0 6 -4 10 -10 10 -5
0 -10 -4 -10 -10z"/>
</g>
</svg>
